G04 DipTrace 3.1.0.0*
G04 Bottom.gbr*
%MOIN*%
G04 #@! TF.FileFunction,Copper,L2,Bot*
G04 #@! TF.Part,Single*
G04 #@! TA.AperFunction,Conductor*
%ADD13C,0.007874*%
%ADD14C,0.015748*%
G04 #@! TA.AperFunction,CopperBalancing*
%ADD15C,0.025*%
G04 #@! TA.AperFunction,ComponentPad*
%ADD16R,0.062992X0.062992*%
%ADD17C,0.062992*%
%ADD19C,0.05*%
%ADD20R,0.05X0.05*%
%ADD21R,0.066929X0.066929*%
%ADD22C,0.066929*%
%ADD23R,0.066535X0.066535*%
%ADD24C,0.066535*%
%ADD25C,0.188976*%
%ADD26C,0.08*%
%ADD27C,0.187402*%
%ADD28C,0.06*%
%ADD29R,0.06X0.06*%
G04 #@! TA.AperFunction,ViaPad*
%ADD36C,0.027559*%
%FSLAX26Y26*%
G04*
G70*
G90*
G75*
G01*
G04 Bottom*
%LPD*%
X2426724Y1741043D2*
D13*
X2495331D1*
X2509110Y1727264D1*
Y621276D1*
X2495331Y607496D1*
X1817949D1*
X1581951Y843493D1*
X2785469Y2136713D2*
X2329724D1*
X2315945Y2122933D1*
Y1659291D1*
X2387660Y1587576D1*
X2785469Y2336614D2*
X2425787D1*
X2368701Y2393701D1*
X2306402Y837497D2*
D14*
Y950009D1*
X2575180Y1825101D2*
Y1681336D1*
X2550177Y1656333D1*
Y799993D1*
X2562678Y787492D1*
X3056480Y2062626D2*
X3225248D1*
X3250251Y2087629D1*
X3356512D1*
X3362762Y2081378D1*
X3342728Y737209D2*
Y879970D1*
X3344010Y881252D1*
X2584307Y1636811D2*
D13*
Y891906D1*
X2064175Y2075689D2*
X2125547Y2014316D1*
Y781789D1*
X2232436Y674900D1*
X2192323Y1933961D2*
Y1344969D1*
X2332436Y1204856D1*
Y774900D1*
X3468701Y2018689D2*
Y2194213D1*
X3431520Y2231394D1*
X2693942D1*
X2618934Y2156386D1*
X2325154D1*
X2300151Y2131383D1*
Y1719394D1*
X2292323D1*
X2094396Y1768606D2*
Y1600194D1*
X2074366Y1580164D1*
X1836412D1*
X1599949Y1343701D1*
X1536327Y1280079D1*
X793743D1*
Y2043659D1*
X818701Y2018701D1*
X793743Y1280079D2*
Y962510D1*
X875001Y881252D1*
Y731682D1*
X873093D1*
X2094396Y1817819D2*
X2001873Y1725295D1*
X1412106D1*
X1118701Y2018701D1*
X1449949Y1343701D2*
Y1537453D1*
X968701Y2018701D1*
X1200259Y731682D2*
Y856472D1*
X1686323Y1342537D1*
Y1393543D1*
X1700102Y1407323D1*
X1960787D1*
X1974567Y1393543D1*
Y635055D1*
X1988346Y621276D1*
X2481551D1*
X2495331Y635055D1*
Y1666760D1*
X2458224D1*
X2200140Y1987618D2*
X2218892Y1968866D1*
Y1360930D1*
X2229826Y1349997D1*
X2443412D1*
X2893412D2*
X2893457Y1766299D1*
X2212642Y2025122D2*
X2225143D1*
X2237644Y2012621D1*
Y1662584D1*
X2387660Y1512568D1*
X2467840D1*
X2481551Y1526280D1*
Y1601945D1*
X2399169Y1684327D1*
Y1865819D1*
X2412949Y1879598D1*
X2729673D1*
X2743412Y1865860D1*
Y1349997D1*
X2706444Y2256396D2*
Y2250146D1*
X3450272D1*
X3543299Y2157118D1*
Y1450110D1*
X3643412Y1349997D1*
X1943283Y1937894D2*
Y2282323D1*
X1967362Y2306402D1*
X2115248D1*
X2139327Y2282323D1*
Y1090197D1*
X2250146Y979378D1*
Y962510D1*
X2275148Y937508D1*
Y736206D1*
X2296610Y714744D1*
X2392592D1*
X2432436Y674900D1*
X2332436D2*
X2292591Y635055D1*
X2002129D1*
X1988350Y648833D1*
Y1470857D1*
X2168701Y1744984D2*
Y2393701D1*
X2450167Y1543822D2*
X2393911D1*
X2350156Y1587576D1*
X2343906D1*
X2262647Y1668835D1*
Y1750093D1*
X2281399Y1768845D1*
Y2393701D1*
X2268701D1*
X2426724Y1924114D2*
X2960059D1*
X2973840Y1910333D1*
Y945271D1*
X3070091Y849020D1*
X2385390Y2016634D2*
X3229520D1*
X3243299Y2002854D1*
Y893922D1*
X3288201Y849020D1*
X2527654Y2113091D2*
X3383476D1*
X3397256Y2099311D1*
Y849020D1*
X2607929Y1853402D2*
Y689571D1*
X2621709Y675791D1*
X3390366D1*
X3451783Y737209D1*
X2564626Y1959543D2*
X3099421D1*
X3113201Y1945764D1*
Y794102D1*
X3126980Y780323D1*
X3190559D1*
X3233673Y737209D1*
X2422791Y1804035D2*
X2509110D1*
X2522890Y1790256D1*
Y610189D1*
X2505432Y592731D1*
X794734D1*
X768858Y618606D1*
Y2068543D1*
X782638Y2082323D1*
X899791D1*
X913571Y2068543D1*
Y1730078D1*
X1299949Y1343701D1*
X1910243Y1748917D2*
X1756333Y1902827D1*
Y2393911D1*
X1749949Y1343701D2*
D14*
Y941386D1*
X1728291Y919728D1*
X1549077D1*
X1527424Y898075D1*
Y731682D1*
X2097988Y1906398D2*
X2025122Y1979264D1*
Y2275148D1*
D36*
X424954Y2437665D3*
X981262Y1906360D3*
X424954Y424954D3*
X3881567Y2431415D3*
X3887818Y424954D3*
X1243790Y937508D3*
X2212642Y849999D3*
X856249Y1906360D3*
X862500Y1418808D3*
X1050020Y1512568D3*
X1200035Y1337550D3*
X1362552Y1412558D3*
X831247Y1237539D3*
X1518819D3*
X893753Y937508D3*
X2306402Y837497D3*
X818745Y624975D3*
X1406307Y912505D3*
X1643832Y1237539D3*
Y956260D3*
X1825101Y1375054D3*
X1937613D3*
X1818850Y931257D3*
X1925112D3*
X1743843Y624975D3*
X1600077Y762490D3*
X2189678Y997768D3*
X2068877Y1468814D3*
Y668730D3*
Y1062521D3*
X2212642Y1268793D3*
X2306402Y950009D3*
X1591869Y1887597D3*
X1585420Y2125391D3*
X2281399Y1312547D3*
X2418913Y1043769D3*
X2287650Y1575075D3*
X2243895Y1381304D3*
X2468919Y1450062D3*
X1916845Y1898806D3*
X2318903Y2318903D3*
X1834500Y1892163D3*
X1717618Y1892433D3*
X1706984Y1794286D3*
X1981367Y2231394D3*
X1706318Y1683701D3*
X1580954Y1514126D3*
X1576715Y1761219D3*
X1577322Y1659475D3*
X1720853Y1511703D3*
X1920707Y1509281D3*
X2024269Y1645546D3*
X1981367Y2125133D3*
X2062626Y2175138D3*
X2675190Y2275148D3*
X2512673D3*
X2218892Y2325154D3*
Y2237644D3*
X2781451Y2068877D3*
X3362762Y2081378D3*
X3056480Y2062626D3*
X2462668Y2081378D3*
X2356407Y1875106D3*
X2943969Y1893858D3*
Y1725091D3*
X2868961Y1718840D3*
X2256396Y2150135D3*
X2937718Y1400056D3*
X2800203Y1681336D3*
X2650188Y718735D3*
X2962720D3*
X2693942Y1756344D3*
X2800203Y1606328D3*
X2931467D3*
X3037728Y1856354D3*
X3075232Y937508D3*
X3006475Y1056270D3*
X3087734Y1293795D3*
X2575180Y1825101D3*
X3269003Y1925112D3*
X3369013Y1668835D3*
X3344010Y881252D3*
X2426724Y1741043D3*
X2387660Y1587576D3*
X2785469Y2136713D3*
Y2336614D3*
X2584307Y891906D3*
Y1636811D3*
X2064175Y2075689D3*
X2192323Y1933961D3*
X2292323Y1719394D3*
X2094396Y1768606D3*
Y1817819D3*
X2458224Y1666760D3*
X2200140Y1987618D3*
X2893457Y1766299D3*
X2212642Y2025122D3*
X2706444Y2256396D3*
X2250146Y962510D3*
X1943283Y1937894D3*
X1988350Y1470857D3*
X2168701Y1744984D3*
X2450167Y1543822D3*
X2350156Y1587576D3*
X2426724Y1924114D3*
X2385390Y2016634D3*
X2527654Y2113091D3*
X2607929Y1853402D3*
X2564626Y1959543D3*
X2422791Y1804035D3*
X1910243Y1748917D3*
X2025122Y2275148D3*
X2097988Y1906398D3*
X421201Y2418832D2*
D15*
X1699282D1*
X1813364D2*
X2111782D1*
X2525620D2*
X3891225D1*
X421201Y2393963D2*
X1693862D1*
X1818784D2*
X2106264D1*
X2531137D2*
X3891225D1*
X421201Y2369094D2*
X1699233D1*
X1813413D2*
X2111538D1*
X2525864D2*
X2759145D1*
X2811753D2*
X3891225D1*
X421201Y2344226D2*
X1720278D1*
X1792368D2*
X2132338D1*
X2205063D2*
X2232338D1*
X2314292D2*
X2332338D1*
X2827524D2*
X3891225D1*
X421201Y2319357D2*
X1723403D1*
X1789243D2*
X1934780D1*
X2201596D2*
X2248501D1*
X2314292D2*
X2397524D1*
X2824350D2*
X3891225D1*
X421201Y2294488D2*
X1723403D1*
X1789243D2*
X1912905D1*
X2201596D2*
X2248501D1*
X2314292D2*
X2690883D1*
X2722006D2*
X3891225D1*
X421201Y2269619D2*
X773452D1*
X863950D2*
X923452D1*
X1013950D2*
X1073452D1*
X1163950D2*
X1723403D1*
X1789243D2*
X1910366D1*
X2067514D2*
X2106411D1*
X2201596D2*
X2248501D1*
X2314292D2*
X2665883D1*
X3476303D2*
X3891225D1*
X421201Y2244751D2*
X755044D1*
X882358D2*
X905044D1*
X1032358D2*
X1055044D1*
X1182358D2*
X1723403D1*
X1789243D2*
X1910366D1*
X2061997D2*
X2106411D1*
X2201596D2*
X2248501D1*
X2314292D2*
X2661782D1*
X3501206D2*
X3891225D1*
X421201Y2219882D2*
X749721D1*
X1187680D2*
X1723403D1*
X1789243D2*
X1910366D1*
X2061997D2*
X2106411D1*
X2201596D2*
X2248501D1*
X2314292D2*
X2636928D1*
X3526059D2*
X3891225D1*
X421201Y2195013D2*
X754067D1*
X883335D2*
X904067D1*
X1033335D2*
X1054067D1*
X1183335D2*
X1723403D1*
X1789243D2*
X1910366D1*
X2061997D2*
X2106411D1*
X2201596D2*
X2248501D1*
X2314292D2*
X2612026D1*
X2794760D2*
X3422378D1*
X3550913D2*
X3891225D1*
X421201Y2170144D2*
X770766D1*
X866635D2*
X920766D1*
X1016635D2*
X1070766D1*
X1166635D2*
X1723403D1*
X1789243D2*
X1910366D1*
X2061997D2*
X2106411D1*
X2201596D2*
X2248501D1*
X2810434D2*
X3435805D1*
X3573276D2*
X3891225D1*
X421201Y2145276D2*
X1723403D1*
X1789243D2*
X1910366D1*
X2061997D2*
X2106411D1*
X2201596D2*
X2248501D1*
X2827329D2*
X3435805D1*
X3576206D2*
X3891225D1*
X421201Y2120407D2*
X1723403D1*
X1789243D2*
X1910366D1*
X2061997D2*
X2106411D1*
X2201596D2*
X2248501D1*
X3421665D2*
X3435786D1*
X3576206D2*
X3891225D1*
X421201Y2095538D2*
X750356D1*
X932114D2*
X1723403D1*
X1789243D2*
X1910366D1*
X2201596D2*
X2248501D1*
X2348862D2*
X2488930D1*
X3576206D2*
X3891225D1*
X421201Y2070669D2*
X736001D1*
X1012680D2*
X1074721D1*
X1162680D2*
X1723403D1*
X1789243D2*
X1910366D1*
X2201596D2*
X2248501D1*
X2348862D2*
X3274721D1*
X3576206D2*
X3891225D1*
X421201Y2045801D2*
X735952D1*
X1031919D2*
X1055483D1*
X1181919D2*
X1723403D1*
X1789243D2*
X1910366D1*
X3240659D2*
X3255483D1*
X3576206D2*
X3891225D1*
X421201Y2020932D2*
X735952D1*
X1187631D2*
X1723403D1*
X1789243D2*
X1910366D1*
X3576206D2*
X3891225D1*
X421201Y1996063D2*
X735952D1*
X1036850D2*
X1053658D1*
X1186850D2*
X1723403D1*
X1789243D2*
X1910366D1*
X3576206D2*
X3891225D1*
X421201Y1971194D2*
X735952D1*
X867710D2*
X880678D1*
X1211704D2*
X1723403D1*
X1789243D2*
X1910366D1*
X1976206D2*
X1989209D1*
X2348862D2*
X2523598D1*
X3133286D2*
X3210366D1*
X3576206D2*
X3891225D1*
X421201Y1946325D2*
X735952D1*
X826645D2*
X880678D1*
X946469D2*
X995571D1*
X1086606D2*
X1145571D1*
X1236606D2*
X1723403D1*
X1789243D2*
X1901381D1*
X1985141D2*
X2006997D1*
X2348862D2*
X2390639D1*
X3146128D2*
X3210366D1*
X3276206D2*
X3364321D1*
X3430161D2*
X3510366D1*
X3576206D2*
X3891225D1*
X421201Y1921457D2*
X735952D1*
X826645D2*
X880678D1*
X946469D2*
X1020424D1*
X1111460D2*
X1170424D1*
X1261460D2*
X1723403D1*
X1789243D2*
X1904018D1*
X1982553D2*
X2031850D1*
X2348862D2*
X2384047D1*
X3004672D2*
X3080288D1*
X3146128D2*
X3210366D1*
X3276206D2*
X3364321D1*
X3430161D2*
X3510366D1*
X3576206D2*
X3891225D1*
X421201Y1896588D2*
X735952D1*
X826645D2*
X880678D1*
X946469D2*
X1045278D1*
X1136313D2*
X1195278D1*
X1286313D2*
X1724087D1*
X1808090D2*
X2056411D1*
X2348862D2*
X2384438D1*
X3006772D2*
X3080288D1*
X3146128D2*
X3210366D1*
X3276206D2*
X3364321D1*
X3430161D2*
X3510366D1*
X3576206D2*
X3891225D1*
X421201Y1871719D2*
X735952D1*
X826645D2*
X880678D1*
X946469D2*
X1070180D1*
X1161215D2*
X1220180D1*
X1311215D2*
X1741909D1*
X1832944D2*
X2075014D1*
X2348862D2*
X2366811D1*
X2775766D2*
X2940932D1*
X3006772D2*
X3080288D1*
X3146128D2*
X3210366D1*
X3276206D2*
X3364321D1*
X3430161D2*
X3510366D1*
X3576206D2*
X3891225D1*
X421201Y1846850D2*
X735952D1*
X826645D2*
X880678D1*
X946469D2*
X1095034D1*
X1186069D2*
X1245034D1*
X1336069D2*
X1560561D1*
X1651840D2*
X1766811D1*
X1857846D2*
X2063979D1*
X2348862D2*
X2366274D1*
X2432065D2*
X2565688D1*
X2776352D2*
X2940932D1*
X3006772D2*
X3080288D1*
X3146128D2*
X3210366D1*
X3276206D2*
X3364321D1*
X3430161D2*
X3510366D1*
X3576206D2*
X3891225D1*
X421201Y1821982D2*
X735952D1*
X826645D2*
X880678D1*
X946469D2*
X1119887D1*
X1210922D2*
X1269887D1*
X1360922D2*
X1552309D1*
X1660092D2*
X1791665D1*
X1882700D2*
X2051821D1*
X2348862D2*
X2366274D1*
X2536655D2*
X2575014D1*
X2776352D2*
X2940932D1*
X3006772D2*
X3080288D1*
X3146128D2*
X3210366D1*
X3276206D2*
X3364321D1*
X3430161D2*
X3510366D1*
X3576206D2*
X3891225D1*
X421201Y1797113D2*
X735952D1*
X826645D2*
X880678D1*
X946469D2*
X1144790D1*
X1235825D2*
X1294790D1*
X1385825D2*
X1556948D1*
X1655454D2*
X1816518D1*
X1907553D2*
X2028188D1*
X2348862D2*
X2366274D1*
X2555014D2*
X2575014D1*
X2640854D2*
X2656948D1*
X2776352D2*
X2865004D1*
X2921909D2*
X2940964D1*
X3006772D2*
X3080288D1*
X3146128D2*
X3210366D1*
X3276206D2*
X3364321D1*
X3430161D2*
X3510366D1*
X3576206D2*
X3891225D1*
X421201Y1772244D2*
X735952D1*
X826645D2*
X880678D1*
X946469D2*
X1169643D1*
X1260678D2*
X1319643D1*
X1410678D2*
X1581508D1*
X1630893D2*
X1841421D1*
X1945590D2*
X2003286D1*
X2348862D2*
X2366274D1*
X2555796D2*
X2575014D1*
X2640854D2*
X2681508D1*
X2776352D2*
X2851137D1*
X3006772D2*
X3080288D1*
X3146128D2*
X3210366D1*
X3276206D2*
X3364321D1*
X3430161D2*
X3510366D1*
X3576206D2*
X3891225D1*
X421201Y1747375D2*
X735952D1*
X826645D2*
X880678D1*
X946469D2*
X1194497D1*
X1285532D2*
X1344497D1*
X2348862D2*
X2366274D1*
X2555796D2*
X2575014D1*
X2640854D2*
X2710512D1*
X2776352D2*
X2855385D1*
X3006772D2*
X3080288D1*
X3146128D2*
X3210366D1*
X3276206D2*
X3364321D1*
X3430161D2*
X3510366D1*
X3576206D2*
X3891225D1*
X421201Y1722507D2*
X735952D1*
X826645D2*
X881606D1*
X966635D2*
X1219399D1*
X1310434D2*
X1369399D1*
X2044614D2*
X2061489D1*
X2348862D2*
X2366274D1*
X2555796D2*
X2575014D1*
X2640854D2*
X2710512D1*
X2776352D2*
X2860561D1*
X2926352D2*
X2940929D1*
X3006772D2*
X3080288D1*
X3146128D2*
X3210366D1*
X3276206D2*
X3364321D1*
X3430161D2*
X3510366D1*
X3576206D2*
X3891225D1*
X421201Y1697638D2*
X735952D1*
X826645D2*
X900503D1*
X991538D2*
X1244253D1*
X1335288D2*
X1396938D1*
X2017026D2*
X2061489D1*
X2348862D2*
X2366274D1*
X2555796D2*
X2575014D1*
X2640854D2*
X2710512D1*
X2776352D2*
X2860512D1*
X2926352D2*
X2940929D1*
X3006772D2*
X3080288D1*
X3146128D2*
X3210366D1*
X3276206D2*
X3364321D1*
X3430161D2*
X3510366D1*
X3576206D2*
X3891225D1*
X421201Y1672769D2*
X735952D1*
X826645D2*
X925356D1*
X1016391D2*
X1269106D1*
X1360141D2*
X2061489D1*
X2348862D2*
X2368520D1*
X2640854D2*
X2710512D1*
X2776352D2*
X2860512D1*
X2926352D2*
X2940929D1*
X3006772D2*
X3080288D1*
X3146128D2*
X3210366D1*
X3276206D2*
X3364321D1*
X3430161D2*
X3510366D1*
X3576206D2*
X3891225D1*
X421201Y1647900D2*
X735952D1*
X826645D2*
X950258D1*
X1041245D2*
X1294008D1*
X1384995D2*
X2061489D1*
X2372837D2*
X2390060D1*
X2640854D2*
X2710512D1*
X2776352D2*
X2860512D1*
X2926352D2*
X2940929D1*
X3006772D2*
X3080288D1*
X3146128D2*
X3210366D1*
X3276206D2*
X3364321D1*
X3430161D2*
X3510366D1*
X3576206D2*
X3891225D1*
X421201Y1623031D2*
X735952D1*
X826645D2*
X975112D1*
X1066147D2*
X1318862D1*
X1409897D2*
X2061489D1*
X2640854D2*
X2710512D1*
X2776352D2*
X2860512D1*
X2926352D2*
X2940929D1*
X3006772D2*
X3080288D1*
X3146128D2*
X3210366D1*
X3276206D2*
X3364321D1*
X3430161D2*
X3510366D1*
X3576206D2*
X3891225D1*
X421201Y1598163D2*
X735952D1*
X826645D2*
X999965D1*
X1091001D2*
X1343715D1*
X1434751D2*
X1808901D1*
X2640854D2*
X2710512D1*
X2776352D2*
X2860512D1*
X2926352D2*
X2940929D1*
X3006772D2*
X3080288D1*
X3146128D2*
X3210366D1*
X3276206D2*
X3364321D1*
X3430161D2*
X3510366D1*
X3576206D2*
X3891225D1*
X421201Y1573294D2*
X735952D1*
X826645D2*
X1024819D1*
X1115854D2*
X1368569D1*
X1459604D2*
X1784047D1*
X2251792D2*
X2281411D1*
X2640854D2*
X2710512D1*
X2776352D2*
X2860512D1*
X2926352D2*
X2940929D1*
X3006772D2*
X3080288D1*
X3146128D2*
X3210366D1*
X3276206D2*
X3364321D1*
X3430161D2*
X3510366D1*
X3576206D2*
X3891225D1*
X421201Y1548425D2*
X735952D1*
X826645D2*
X1049721D1*
X1140756D2*
X1393471D1*
X1480796D2*
X1759145D1*
X1850180D2*
X2092641D1*
X2251792D2*
X2306264D1*
X2640854D2*
X2710512D1*
X2776352D2*
X2860512D1*
X2926352D2*
X2940929D1*
X3006772D2*
X3080288D1*
X3146128D2*
X3210366D1*
X3276206D2*
X3364321D1*
X3430161D2*
X3510366D1*
X3576206D2*
X3891225D1*
X421201Y1523556D2*
X735952D1*
X826645D2*
X1074575D1*
X1165610D2*
X1417055D1*
X1482846D2*
X1734292D1*
X1825327D2*
X2092641D1*
X2251792D2*
X2331167D1*
X2640854D2*
X2710512D1*
X2776352D2*
X2860512D1*
X2926352D2*
X2940929D1*
X3006772D2*
X3080288D1*
X3146128D2*
X3210366D1*
X3276206D2*
X3364321D1*
X3430161D2*
X3510366D1*
X3576206D2*
X3891225D1*
X421201Y1498688D2*
X735952D1*
X826645D2*
X1099428D1*
X1190463D2*
X1417055D1*
X1482846D2*
X1709438D1*
X1800473D2*
X1956753D1*
X2019956D2*
X2092641D1*
X2251792D2*
X2356020D1*
X2640854D2*
X2710512D1*
X2776352D2*
X2860512D1*
X2926352D2*
X2940929D1*
X3006772D2*
X3080288D1*
X3146128D2*
X3210366D1*
X3276206D2*
X3364321D1*
X3430161D2*
X3510366D1*
X3576206D2*
X3891225D1*
X421201Y1473819D2*
X735952D1*
X826645D2*
X1124331D1*
X1215366D2*
X1417055D1*
X1482846D2*
X1684536D1*
X1775571D2*
X1945669D1*
X2030991D2*
X2092641D1*
X2251792D2*
X2462417D1*
X2640854D2*
X2710512D1*
X2776352D2*
X2860512D1*
X2926352D2*
X2940929D1*
X3006772D2*
X3080288D1*
X3146128D2*
X3210366D1*
X3276206D2*
X3364321D1*
X3430161D2*
X3510366D1*
X3576206D2*
X3891225D1*
X421201Y1448950D2*
X735952D1*
X826645D2*
X1149184D1*
X1240219D2*
X1417055D1*
X1482846D2*
X1659682D1*
X1750717D2*
X1952065D1*
X2024643D2*
X2092641D1*
X2251792D2*
X2462417D1*
X2640854D2*
X2710512D1*
X2776352D2*
X2860512D1*
X2926352D2*
X2940929D1*
X3006772D2*
X3080288D1*
X3146128D2*
X3210366D1*
X3276206D2*
X3364321D1*
X3430161D2*
X3510415D1*
X3590024D2*
X3891225D1*
X421201Y1424081D2*
X735952D1*
X826645D2*
X1174038D1*
X1265073D2*
X1417055D1*
X1482846D2*
X1634829D1*
X2021274D2*
X2092641D1*
X2251792D2*
X2462417D1*
X2640854D2*
X2710512D1*
X2776352D2*
X2860512D1*
X2926352D2*
X2940929D1*
X3006772D2*
X3080288D1*
X3146128D2*
X3210366D1*
X3298081D2*
X3364321D1*
X3430161D2*
X3523891D1*
X3614926D2*
X3891225D1*
X421201Y1399213D2*
X735952D1*
X889047D2*
X960854D1*
X1039047D2*
X1198940D1*
X1339047D2*
X1410854D1*
X1489047D2*
X1560854D1*
X2021274D2*
X2092641D1*
X2251792D2*
X2396206D1*
X2640854D2*
X2696206D1*
X2790610D2*
X2846206D1*
X3146128D2*
X3210366D1*
X3430161D2*
X3446206D1*
X3690610D2*
X3891225D1*
X421201Y1374344D2*
X735952D1*
X911460D2*
X938442D1*
X1061460D2*
X1223794D1*
X1361460D2*
X1388442D1*
X1511460D2*
X1538442D1*
X1811460D2*
X1941665D1*
X2021274D2*
X2092641D1*
X2640854D2*
X2679018D1*
X2807797D2*
X2829018D1*
X3146128D2*
X3210366D1*
X3557797D2*
X3573598D1*
X3707797D2*
X3891225D1*
X421201Y1349475D2*
X735952D1*
X918686D2*
X931215D1*
X1068686D2*
X1231215D1*
X1368686D2*
X1381215D1*
X1518686D2*
X1531215D1*
X1818686D2*
X1941665D1*
X2021274D2*
X2092641D1*
X2640854D2*
X2674428D1*
X3146128D2*
X3210366D1*
X3712387D2*
X3891225D1*
X421201Y1324606D2*
X735952D1*
X916147D2*
X933754D1*
X1066147D2*
X1233754D1*
X1366147D2*
X1383754D1*
X1516147D2*
X1533754D1*
X1816147D2*
X1941665D1*
X2021274D2*
X2092641D1*
X2640854D2*
X2679458D1*
X2807358D2*
X2829458D1*
X3146128D2*
X3210366D1*
X3557358D2*
X3579458D1*
X3707358D2*
X3891225D1*
X421201Y1299738D2*
X735952D1*
X1802329D2*
X1941665D1*
X2021274D2*
X2092641D1*
X2172251D2*
X2192055D1*
X2283090D2*
X2397378D1*
X2640854D2*
X2697378D1*
X2789438D2*
X2847378D1*
X3146128D2*
X3210366D1*
X3276206D2*
X3297378D1*
X3430161D2*
X3447378D1*
X3539438D2*
X3597378D1*
X3689438D2*
X3891225D1*
X421201Y1274869D2*
X735952D1*
X1664194D2*
X1713100D1*
X1786801D2*
X1941665D1*
X2021274D2*
X2092641D1*
X2172251D2*
X2216909D1*
X2307944D2*
X2462417D1*
X2640854D2*
X2940932D1*
X3006772D2*
X3080288D1*
X3146128D2*
X3210366D1*
X3276206D2*
X3364321D1*
X3430161D2*
X3891225D1*
X421201Y1250000D2*
X735952D1*
X1639292D2*
X1713100D1*
X1786801D2*
X1941665D1*
X2021274D2*
X2092641D1*
X2172251D2*
X2241762D1*
X2332797D2*
X2462417D1*
X2640854D2*
X2940932D1*
X3006772D2*
X3080288D1*
X3146128D2*
X3210366D1*
X3276206D2*
X3364321D1*
X3430161D2*
X3891225D1*
X421201Y1225131D2*
X735952D1*
X826645D2*
X1523403D1*
X1614438D2*
X1713100D1*
X1786801D2*
X1941665D1*
X2021274D2*
X2092641D1*
X2172251D2*
X2266665D1*
X2357602D2*
X2462417D1*
X2640854D2*
X2940932D1*
X3006772D2*
X3080288D1*
X3146128D2*
X3210366D1*
X3276206D2*
X3364321D1*
X3430161D2*
X3891225D1*
X421201Y1200262D2*
X735952D1*
X826645D2*
X1498549D1*
X1589585D2*
X1713100D1*
X1786801D2*
X1941665D1*
X2021274D2*
X2092641D1*
X2172251D2*
X2291518D1*
X2365366D2*
X2462417D1*
X2640854D2*
X2940932D1*
X3006772D2*
X3080288D1*
X3146128D2*
X3210366D1*
X3276206D2*
X3364321D1*
X3430161D2*
X3891225D1*
X421201Y1175394D2*
X735952D1*
X826645D2*
X1473647D1*
X1564682D2*
X1713100D1*
X1786801D2*
X1941665D1*
X2021274D2*
X2092641D1*
X2172251D2*
X2299526D1*
X2365366D2*
X2462417D1*
X2640854D2*
X2940932D1*
X3006772D2*
X3080288D1*
X3146128D2*
X3210366D1*
X3276206D2*
X3364321D1*
X3430161D2*
X3891225D1*
X421201Y1150525D2*
X735952D1*
X826645D2*
X1448794D1*
X1539829D2*
X1713100D1*
X1786801D2*
X1941665D1*
X2021274D2*
X2092641D1*
X2172251D2*
X2299526D1*
X2365366D2*
X2462417D1*
X2640854D2*
X2940932D1*
X3006772D2*
X3080288D1*
X3146128D2*
X3210366D1*
X3276206D2*
X3364321D1*
X3430161D2*
X3891225D1*
X421201Y1125656D2*
X735952D1*
X826645D2*
X1423940D1*
X1514975D2*
X1713100D1*
X1786801D2*
X1941665D1*
X2021274D2*
X2092641D1*
X2172251D2*
X2299526D1*
X2365366D2*
X2462417D1*
X2640854D2*
X2940932D1*
X3006772D2*
X3080288D1*
X3146128D2*
X3210366D1*
X3276206D2*
X3364321D1*
X3430161D2*
X3891225D1*
X421201Y1100787D2*
X735952D1*
X826645D2*
X1399038D1*
X1490073D2*
X1713100D1*
X1786801D2*
X1941665D1*
X2021274D2*
X2092641D1*
X2174253D2*
X2299526D1*
X2365366D2*
X2462417D1*
X2640854D2*
X2940932D1*
X3006772D2*
X3080288D1*
X3146128D2*
X3210366D1*
X3276206D2*
X3364321D1*
X3430161D2*
X3891225D1*
X421201Y1075919D2*
X735952D1*
X826645D2*
X1374184D1*
X1465219D2*
X1713100D1*
X1786801D2*
X1941665D1*
X2021274D2*
X2092641D1*
X2199106D2*
X2299526D1*
X2365366D2*
X2462417D1*
X2640854D2*
X2940932D1*
X3006772D2*
X3080288D1*
X3146128D2*
X3210366D1*
X3276206D2*
X3364321D1*
X3430161D2*
X3891225D1*
X421201Y1051050D2*
X735952D1*
X826645D2*
X1349331D1*
X1440366D2*
X1713100D1*
X1786801D2*
X1941665D1*
X2021274D2*
X2092641D1*
X2224008D2*
X2299526D1*
X2365366D2*
X2462417D1*
X2640854D2*
X2940932D1*
X3006772D2*
X3080288D1*
X3146128D2*
X3210366D1*
X3276206D2*
X3364321D1*
X3430161D2*
X3891225D1*
X421201Y1026181D2*
X735952D1*
X826645D2*
X1324428D1*
X1415463D2*
X1713100D1*
X1786801D2*
X1941665D1*
X2021274D2*
X2092641D1*
X2248862D2*
X2299526D1*
X2365366D2*
X2462417D1*
X2640854D2*
X2940932D1*
X3006772D2*
X3080288D1*
X3146128D2*
X3210366D1*
X3276206D2*
X3364321D1*
X3430161D2*
X3891225D1*
X421201Y1001312D2*
X735952D1*
X826645D2*
X1299575D1*
X1390610D2*
X1713100D1*
X1786801D2*
X1941665D1*
X2021274D2*
X2092641D1*
X2158481D2*
X2182680D1*
X2273715D2*
X2299526D1*
X2365366D2*
X2462417D1*
X2640854D2*
X2940932D1*
X3006772D2*
X3080288D1*
X3146128D2*
X3210366D1*
X3276206D2*
X3364321D1*
X3430161D2*
X3891225D1*
X421201Y976444D2*
X735952D1*
X826645D2*
X1274721D1*
X1365756D2*
X1713100D1*
X1786801D2*
X1941665D1*
X2021274D2*
X2092641D1*
X2158481D2*
X2207583D1*
X2365366D2*
X2462417D1*
X2640854D2*
X2940932D1*
X3006772D2*
X3080288D1*
X3146128D2*
X3210366D1*
X3276206D2*
X3364321D1*
X3430161D2*
X3891225D1*
X421201Y951575D2*
X735952D1*
X850180D2*
X1249868D1*
X1340854D2*
X1533706D1*
X1786801D2*
X1941665D1*
X2021274D2*
X2092641D1*
X2158481D2*
X2208901D1*
X2365366D2*
X2462417D1*
X2640854D2*
X2940932D1*
X3013071D2*
X3080288D1*
X3146128D2*
X3210366D1*
X3276206D2*
X3364321D1*
X3430161D2*
X3891225D1*
X421201Y926706D2*
X735952D1*
X875083D2*
X1224965D1*
X1316001D2*
X1504995D1*
X1783530D2*
X1941665D1*
X2021274D2*
X2092641D1*
X2158481D2*
X2229213D1*
X2365366D2*
X2462417D1*
X2640854D2*
X2947231D1*
X3037924D2*
X3080288D1*
X3146128D2*
X3210366D1*
X3276206D2*
X3364321D1*
X3430161D2*
X3891225D1*
X421201Y901837D2*
X735952D1*
X943051D2*
X1021254D1*
X1052085D2*
X1130288D1*
X1161167D2*
X1200112D1*
X1291147D2*
X1348403D1*
X1379282D2*
X1457485D1*
X1761460D2*
X1941665D1*
X2021274D2*
X2092641D1*
X2158481D2*
X2242251D1*
X2365366D2*
X2462417D1*
X2640854D2*
X2971743D1*
X3318637D2*
X3364321D1*
X3430161D2*
X3475844D1*
X3536753D2*
X3891225D1*
X421201Y876969D2*
X735952D1*
X801792D2*
X833754D1*
X1633969D2*
X1941665D1*
X2021274D2*
X2092641D1*
X2158481D2*
X2242251D1*
X2365366D2*
X2462417D1*
X2640854D2*
X2996645D1*
X3561655D2*
X3891225D1*
X421201Y852100D2*
X735952D1*
X801792D2*
X842104D1*
X1643588D2*
X1941665D1*
X2021274D2*
X2092641D1*
X2158481D2*
X2242251D1*
X2365366D2*
X2462417D1*
X2555796D2*
X2575014D1*
X2640854D2*
X3007827D1*
X3568491D2*
X3891225D1*
X421201Y827231D2*
X735952D1*
X801792D2*
X842104D1*
X1643735D2*
X1941665D1*
X2021274D2*
X2092641D1*
X2158481D2*
X2208657D1*
X2365366D2*
X2462417D1*
X2555796D2*
X2575014D1*
X2640854D2*
X3007827D1*
X3564438D2*
X3891225D1*
X421201Y802362D2*
X735952D1*
X801792D2*
X842104D1*
X1668588D2*
X1941665D1*
X2021274D2*
X2092641D1*
X2158481D2*
X2180581D1*
X2384311D2*
X2462417D1*
X2555796D2*
X2575014D1*
X2640854D2*
X3007827D1*
X3218979D2*
X3248354D1*
X3328061D2*
X3357436D1*
X3437094D2*
X3466469D1*
X3546128D2*
X3891225D1*
X421201Y777493D2*
X735952D1*
X801792D2*
X832241D1*
X1568296D2*
X1602407D1*
X1693442D2*
X1941665D1*
X2021274D2*
X2092934D1*
X2391391D2*
X2462417D1*
X2555796D2*
X2575014D1*
X2640854D2*
X3077993D1*
X3280307D2*
X3405141D1*
X3498422D2*
X3891225D1*
X421201Y752625D2*
X735952D1*
X801792D2*
X814647D1*
X1585874D2*
X1627309D1*
X1718344D2*
X1941665D1*
X2021274D2*
X2109194D1*
X2386850D2*
X2462417D1*
X2555796D2*
X2575014D1*
X2640854D2*
X3064370D1*
X3293930D2*
X3391567D1*
X3511997D2*
X3891225D1*
X421201Y727756D2*
X735952D1*
X1589536D2*
X1652163D1*
X1743198D2*
X1941665D1*
X2021274D2*
X2134047D1*
X2555796D2*
X2575014D1*
X2640854D2*
X3063100D1*
X3295200D2*
X3390297D1*
X3513315D2*
X3891225D1*
X421201Y702887D2*
X735952D1*
X801792D2*
X818227D1*
X1582309D2*
X1677016D1*
X1768051D2*
X1941665D1*
X2021274D2*
X2158950D1*
X2555796D2*
X2575014D1*
X3503208D2*
X3891225D1*
X421201Y678018D2*
X735952D1*
X801792D2*
X844301D1*
X901889D2*
X953335D1*
X1010922D2*
X1062417D1*
X1120004D2*
X1171450D1*
X1229038D2*
X1280532D1*
X1338120D2*
X1389565D1*
X1447153D2*
X1498647D1*
X1556235D2*
X1701919D1*
X1792905D2*
X1941665D1*
X2021274D2*
X2173452D1*
X2555796D2*
X2577309D1*
X3462534D2*
X3891225D1*
X421201Y653150D2*
X735952D1*
X801792D2*
X1726772D1*
X1817807D2*
X1941665D1*
X2555796D2*
X2598891D1*
X3413169D2*
X3891225D1*
X421201Y628281D2*
X735952D1*
X804721D2*
X1751626D1*
X2555796D2*
X3891225D1*
X421201Y603412D2*
X740004D1*
X2555063D2*
X3891225D1*
X421201Y578543D2*
X763393D1*
X2536753D2*
X3891225D1*
X421201Y553675D2*
X3891225D1*
X421201Y528806D2*
X3891225D1*
X421201Y503937D2*
X3891225D1*
X421201Y479068D2*
X3891225D1*
X421201Y454199D2*
X3891225D1*
X421201Y429331D2*
X3891225D1*
X2792274Y2201004D2*
Y2176394D1*
X2797913Y2175013D1*
X2803751Y2172595D1*
X2809140Y2169293D1*
X2813945Y2165189D1*
X2818049Y2160384D1*
X2821351Y2154996D1*
X2823769Y2149157D1*
X2825146Y2143509D1*
X3385864Y2143426D1*
X3392880Y2142030D1*
X3399376Y2139036D1*
X3404993Y2134607D1*
X3405215Y2134367D1*
X3420394Y2119073D1*
X3424369Y2113126D1*
X3426844Y2106415D1*
X3427685Y2099311D1*
X3427672Y2098985D1*
X3427685Y2071040D1*
X3433959Y2075383D1*
X3438283Y2077805D1*
X3438272Y2181642D1*
X3418907Y2200973D1*
X2792311Y2200965D1*
X1657534Y1814661D2*
X1656270Y1806680D1*
X1653773Y1798996D1*
X1650105Y1791796D1*
X1645356Y1785259D1*
X1639642Y1779546D1*
X1633105Y1774797D1*
X1625906Y1771128D1*
X1618221Y1768631D1*
X1610241Y1767367D1*
X1602161D1*
X1594180Y1768631D1*
X1586496Y1771128D1*
X1579296Y1774797D1*
X1572759Y1779546D1*
X1567046Y1785259D1*
X1562297Y1791796D1*
X1558628Y1798996D1*
X1556131Y1806680D1*
X1554867Y1814661D1*
Y1822741D1*
X1556131Y1830721D1*
X1558628Y1838406D1*
X1562297Y1845605D1*
X1567046Y1852142D1*
X1572759Y1857856D1*
X1579296Y1862605D1*
X1586496Y1866273D1*
X1594180Y1868770D1*
X1602161Y1870034D1*
X1610241D1*
X1618221Y1868770D1*
X1625906Y1866273D1*
X1633105Y1862605D1*
X1639642Y1857856D1*
X1645356Y1852142D1*
X1650105Y1845605D1*
X1653773Y1838406D1*
X1656270Y1830721D1*
X1657534Y1822741D1*
Y1814661D1*
X2713017Y1767696D2*
X2706201Y1767209D1*
X2698146Y1767843D1*
X2690289Y1769729D1*
X2682824Y1772821D1*
X2675934Y1777043D1*
X2669790Y1782290D1*
X2664543Y1788434D1*
X2660321Y1795324D1*
X2657229Y1802789D1*
X2655343Y1810646D1*
X2654709Y1818701D1*
X2655343Y1826756D1*
X2657229Y1834613D1*
X2660321Y1842078D1*
X2664709Y1849178D1*
X2647984Y1849169D1*
X2646230Y1840957D1*
X2643811Y1835119D1*
X2640510Y1829730D1*
X2638342Y1827020D1*
X2638358Y706185D1*
X3073515Y706221D1*
X3069407Y714340D1*
X3066509Y723258D1*
X3065042Y732520D1*
Y741898D1*
X3066509Y751160D1*
X3069407Y760078D1*
X3073664Y768433D1*
X3079176Y776020D1*
X3085228Y782116D1*
X3083534Y787392D1*
X3079850Y789260D1*
X3010331D1*
Y865774D1*
X2950701Y925508D1*
X2946727Y931456D1*
X2944251Y938167D1*
X2943411Y945270D1*
X2943424Y945597D1*
X2943411Y1306159D1*
X2936595Y1299436D1*
X2928154Y1293303D1*
X2918858Y1288566D1*
X2908934Y1285342D1*
X2898629Y1283710D1*
X2888195D1*
X2877890Y1285342D1*
X2867967Y1288566D1*
X2858670Y1293303D1*
X2850229Y1299436D1*
X2842851Y1306814D1*
X2836718Y1315255D1*
X2831981Y1324551D1*
X2828757Y1334474D1*
X2827125Y1344780D1*
Y1355214D1*
X2828757Y1365519D1*
X2831981Y1375442D1*
X2836718Y1384739D1*
X2842851Y1393180D1*
X2850229Y1400558D1*
X2858670Y1406691D1*
X2863030Y1409132D1*
X2862834Y1740145D1*
X2859119Y1745257D1*
X2856251Y1750888D1*
X2854298Y1756898D1*
X2853309Y1763140D1*
Y1769459D1*
X2854298Y1775700D1*
X2856251Y1781711D1*
X2859119Y1787341D1*
X2862834Y1792454D1*
X2867302Y1796922D1*
X2872415Y1800636D1*
X2878045Y1803505D1*
X2884055Y1805458D1*
X2890297Y1806447D1*
X2896616D1*
X2902858Y1805458D1*
X2908868Y1803505D1*
X2914499Y1800636D1*
X2919611Y1796922D1*
X2924079Y1792454D1*
X2927794Y1787341D1*
X2930663Y1781711D1*
X2932616Y1775700D1*
X2933604Y1769459D1*
Y1763140D1*
X2932616Y1756898D1*
X2930663Y1750888D1*
X2927794Y1745257D1*
X2923870Y1739918D1*
X2923864Y1409120D1*
X2932495Y1403790D1*
X2940429Y1397014D1*
X2943433Y1393764D1*
X2943411Y1893659D1*
X2758644Y1893685D1*
X2768050Y1883726D1*
X2771545Y1877485D1*
X2773486Y1870600D1*
X2773861Y1865840D1*
Y1409150D1*
X2782495Y1403790D1*
X2790429Y1397014D1*
X2797205Y1389080D1*
X2802657Y1380184D1*
X2806650Y1370544D1*
X2809086Y1360398D1*
X2809904Y1349997D1*
X2809086Y1339595D1*
X2806650Y1329450D1*
X2802657Y1319810D1*
X2797205Y1310914D1*
X2790429Y1302980D1*
X2782495Y1296203D1*
X2773599Y1290752D1*
X2763959Y1286759D1*
X2753814Y1284323D1*
X2743412Y1283505D1*
X2733010Y1284323D1*
X2722865Y1286759D1*
X2713225Y1290752D1*
X2704329Y1296203D1*
X2696395Y1302980D1*
X2689619Y1310914D1*
X2684167Y1319810D1*
X2680174Y1329450D1*
X2677739Y1339595D1*
X2676920Y1349997D1*
X2677739Y1360398D1*
X2680174Y1370544D1*
X2684167Y1380184D1*
X2689619Y1389080D1*
X2696395Y1397014D1*
X2704329Y1403790D1*
X2713030Y1409132D1*
X2713003Y1767669D1*
X2218668Y2360646D2*
X2214292Y2354762D1*
X2207640Y2348109D1*
X2199114Y2342067D1*
X2199130Y2063086D1*
X2206342Y2064898D1*
X2212642Y2065394D1*
X2218942Y2064898D1*
X2225086Y2063423D1*
X2230925Y2061004D1*
X2236313Y2057702D1*
X2241118Y2053598D1*
X2245222Y2048793D1*
X2249160Y2044138D1*
X2250986Y2042312D1*
X2250970Y2336472D1*
X2241481Y2340279D1*
X2233459Y2345195D1*
X2226305Y2351305D1*
X2220195Y2358459D1*
X2218734Y2360646D1*
X2318668D2*
X2314292Y2354762D1*
X2311808Y2352075D1*
X2311828Y2183691D1*
X2318050Y2185974D1*
X2325154Y2186815D1*
X2606355D1*
X2667127Y2247612D1*
X2666172Y2256396D1*
X2666668Y2262696D1*
X2668143Y2268841D1*
X2670561Y2274679D1*
X2673863Y2280067D1*
X2677967Y2284873D1*
X2682772Y2288977D1*
X2688161Y2292279D1*
X2693999Y2294697D1*
X2700144Y2296172D1*
X2706444Y2296668D1*
X2712743Y2296172D1*
X2718888Y2294697D1*
X2724727Y2292279D1*
X2730115Y2288977D1*
X2734920Y2284873D1*
X2738634Y2280562D1*
X3452659Y2280481D1*
X3459675Y2279086D1*
X3466171Y2276091D1*
X3471788Y2271662D1*
X3472010Y2271423D1*
X3566438Y2176880D1*
X3570412Y2170933D1*
X3572888Y2164222D1*
X3573728Y2157118D1*
X3573716Y2156792D1*
X3573728Y1462733D1*
X3623201Y1413307D1*
X3633010Y1415670D1*
X3643412Y1416489D1*
X3653814Y1415670D1*
X3663959Y1413234D1*
X3673599Y1409242D1*
X3682495Y1403790D1*
X3690429Y1397014D1*
X3697205Y1389080D1*
X3702657Y1380184D1*
X3706650Y1370544D1*
X3709086Y1360398D1*
X3709904Y1349997D1*
X3709086Y1339595D1*
X3706650Y1329450D1*
X3702657Y1319810D1*
X3697205Y1310914D1*
X3690429Y1302980D1*
X3682495Y1296203D1*
X3673599Y1290752D1*
X3663959Y1286759D1*
X3653814Y1284323D1*
X3643412Y1283505D1*
X3633010Y1284323D1*
X3622865Y1286759D1*
X3613225Y1290752D1*
X3604329Y1296203D1*
X3596395Y1302980D1*
X3589619Y1310914D1*
X3584167Y1319810D1*
X3580174Y1329450D1*
X3577739Y1339595D1*
X3576920Y1349997D1*
X3577739Y1360398D1*
X3580113Y1370328D1*
X3520161Y1430412D1*
X3516187Y1436360D1*
X3513711Y1443071D1*
X3512870Y1450175D1*
X3512883Y1450501D1*
X3512870Y1968973D1*
X3503443Y1961996D1*
X3494146Y1957259D1*
X3484223Y1954035D1*
X3473918Y1952402D1*
X3463484D1*
X3453179Y1954035D1*
X3443255Y1957259D1*
X3433959Y1961996D1*
X3427680Y1966424D1*
X3427739Y1360398D1*
X3430174Y1370544D1*
X3434167Y1380184D1*
X3439619Y1389080D1*
X3446395Y1397014D1*
X3454329Y1403790D1*
X3463225Y1409242D1*
X3472865Y1413234D1*
X3483010Y1415670D1*
X3493412Y1416489D1*
X3503814Y1415670D1*
X3513959Y1413234D1*
X3523599Y1409242D1*
X3532495Y1403790D1*
X3540429Y1397014D1*
X3547205Y1389080D1*
X3552657Y1380184D1*
X3556650Y1370544D1*
X3559086Y1360398D1*
X3559904Y1349997D1*
X3559086Y1339595D1*
X3556650Y1329450D1*
X3552657Y1319810D1*
X3547205Y1310914D1*
X3540429Y1302980D1*
X3532495Y1296203D1*
X3523599Y1290752D1*
X3513959Y1286759D1*
X3503814Y1284323D1*
X3493412Y1283505D1*
X3483010Y1284323D1*
X3472865Y1286759D1*
X3463225Y1290752D1*
X3454329Y1296203D1*
X3446395Y1302980D1*
X3439619Y1310914D1*
X3434167Y1319810D1*
X3430174Y1329450D1*
X3427674Y1340142D1*
X3427685Y900434D1*
X3436067Y894462D1*
X3442698Y887831D1*
X3448210Y880244D1*
X3451753Y873437D1*
X3455357Y880244D1*
X3460869Y887831D1*
X3467500Y894462D1*
X3475087Y899974D1*
X3483442Y904231D1*
X3492360Y907129D1*
X3501622Y908596D1*
X3511000D1*
X3520262Y907129D1*
X3529180Y904231D1*
X3537535Y899974D1*
X3545122Y894462D1*
X3551753Y887831D1*
X3557265Y880244D1*
X3561522Y871889D1*
X3564420Y862971D1*
X3565887Y853709D1*
Y844331D1*
X3564420Y835069D1*
X3561522Y826151D1*
X3557265Y817796D1*
X3551753Y810209D1*
X3545122Y803578D1*
X3537535Y798066D1*
X3529180Y793809D1*
X3520262Y790911D1*
X3511000Y789444D1*
X3501622D1*
X3492360Y790911D1*
X3483442Y793809D1*
X3475087Y798066D1*
X3467500Y803578D1*
X3460869Y810209D1*
X3455357Y817796D1*
X3451814Y824603D1*
X3448210Y817796D1*
X3442698Y810209D1*
X3436067Y803578D1*
X3428480Y798066D1*
X3420125Y793809D1*
X3411207Y790911D1*
X3401945Y789444D1*
X3392567D1*
X3383305Y790911D1*
X3374387Y793809D1*
X3366031Y798066D1*
X3358445Y803578D1*
X3351814Y810209D1*
X3346302Y817796D1*
X3342759Y824603D1*
X3339154Y817796D1*
X3333643Y810209D1*
X3327012Y803578D1*
X3319425Y798066D1*
X3311070Y793809D1*
X3302151Y790911D1*
X3292889Y789444D1*
X3283512D1*
X3274250Y790911D1*
X3265332Y793809D1*
X3256976Y798066D1*
X3249390Y803578D1*
X3242759Y810209D1*
X3237247Y817796D1*
X3233704Y824603D1*
X3230099Y817796D1*
X3224587Y810209D1*
X3217957Y803578D1*
X3213647Y800256D1*
X3219723Y795318D1*
X3228985Y796785D1*
X3238362D1*
X3247624Y795318D1*
X3256542Y792420D1*
X3264898Y788163D1*
X3272484Y782651D1*
X3279115Y776020D1*
X3284627Y768433D1*
X3288884Y760078D1*
X3291782Y751160D1*
X3293249Y741898D1*
Y732520D1*
X3291782Y723258D1*
X3288884Y714340D1*
X3284743Y706193D1*
X3377812Y706221D1*
X3393881Y722340D1*
X3392208Y732520D1*
Y741898D1*
X3393675Y751160D1*
X3396573Y760078D1*
X3400830Y768433D1*
X3406342Y776020D1*
X3412973Y782651D1*
X3420559Y788163D1*
X3428914Y792420D1*
X3437833Y795318D1*
X3447095Y796785D1*
X3456472D1*
X3465734Y795318D1*
X3474653Y792420D1*
X3483008Y788163D1*
X3490594Y782651D1*
X3497225Y776020D1*
X3502737Y768433D1*
X3506994Y760078D1*
X3509892Y751160D1*
X3511359Y741898D1*
Y732520D1*
X3509892Y723258D1*
X3506994Y714340D1*
X3502737Y705985D1*
X3497225Y698398D1*
X3490594Y691767D1*
X3483008Y686255D1*
X3474653Y681998D1*
X3465734Y679100D1*
X3456472Y677633D1*
X3447095D1*
X3436933Y679354D1*
X3410128Y652653D1*
X3404181Y648679D1*
X3397470Y646203D1*
X3390366Y645362D1*
X3390040Y645375D1*
X2619321Y645456D1*
X2612306Y646851D1*
X2605809Y649846D1*
X2600192Y654275D1*
X2584790Y669811D1*
X2580816Y675759D1*
X2578340Y682470D1*
X2577500Y689574D1*
Y852219D1*
X2571862Y853605D1*
X2566024Y856023D1*
X2560636Y859325D1*
X2555831Y863429D1*
X2553310Y866226D1*
X2553225Y607802D1*
X2551830Y600786D1*
X2548835Y594290D1*
X2544406Y588672D1*
X2544167Y588451D1*
X2525194Y569592D1*
X2519246Y565618D1*
X2512535Y563143D1*
X2505432Y562302D1*
X2505105Y562315D1*
X792346Y562396D1*
X785330Y563791D1*
X778834Y566786D1*
X773217Y571214D1*
X772995Y571454D1*
X745720Y598844D1*
X741746Y604792D1*
X739270Y611503D1*
X738429Y618606D1*
X738442Y618933D1*
X738523Y2070931D1*
X739918Y2077946D1*
X742913Y2084443D1*
X747342Y2090060D1*
X747581Y2090282D1*
X762876Y2105461D1*
X768823Y2109435D1*
X775534Y2111911D1*
X782638Y2112752D1*
X782964Y2112739D1*
X902179Y2112658D1*
X909194Y2111263D1*
X915691Y2108268D1*
X921308Y2103840D1*
X921530Y2103600D1*
X936709Y2088306D1*
X940684Y2082358D1*
X941823Y2079812D1*
X953179Y2083356D1*
X963484Y2084988D1*
X973918D1*
X984223Y2083356D1*
X994146Y2080132D1*
X1003443Y2075395D1*
X1011884Y2069262D1*
X1019262Y2061884D1*
X1025395Y2053443D1*
X1030132Y2044146D1*
X1033356Y2034223D1*
X1034988Y2023918D1*
Y2013484D1*
X1033356Y2003179D1*
X1032011Y1998409D1*
X1473087Y1557215D1*
X1477061Y1551267D1*
X1479537Y1544556D1*
X1480378Y1537453D1*
X1480365Y1537126D1*
X1480378Y1402834D1*
X1489032Y1397494D1*
X1496966Y1390718D1*
X1503742Y1382784D1*
X1509193Y1373888D1*
X1513186Y1364248D1*
X1515622Y1354102D1*
X1516441Y1343701D1*
X1515622Y1333299D1*
X1513186Y1323154D1*
X1509193Y1313514D1*
X1507509Y1310507D1*
X1523772Y1310508D1*
X1536596Y1323382D1*
X1534275Y1333299D1*
X1533456Y1343701D1*
X1534275Y1354102D1*
X1536711Y1364248D1*
X1540704Y1373888D1*
X1546155Y1382784D1*
X1552932Y1390718D1*
X1560865Y1397494D1*
X1569762Y1402946D1*
X1579401Y1406939D1*
X1589547Y1409374D1*
X1599949Y1410193D1*
X1610350Y1409374D1*
X1620241Y1407011D1*
X1816650Y1603303D1*
X1822597Y1607277D1*
X1829309Y1609753D1*
X1836412Y1610593D1*
X1836738Y1610580D1*
X2061754Y1610593D1*
X2063967Y1625194D1*
X2063774Y1742452D1*
X2062880Y1743269D1*
X2021635Y1702157D1*
X2015687Y1698183D1*
X2008976Y1695707D1*
X2001873Y1694866D1*
X2001546Y1694879D1*
X1409719Y1694960D1*
X1402703Y1696355D1*
X1396207Y1699350D1*
X1390590Y1703779D1*
X1390368Y1704018D1*
X1138994Y1955375D1*
X1129102Y1953027D1*
X1118701Y1952209D1*
X1108299Y1953027D1*
X1098154Y1955463D1*
X1088514Y1959456D1*
X1079618Y1964908D1*
X1071684Y1971684D1*
X1064908Y1979618D1*
X1059456Y1988514D1*
X1055463Y1998154D1*
X1053027Y2008299D1*
X1052209Y2018701D1*
X1053027Y2029102D1*
X1055463Y2039248D1*
X1059456Y2048888D1*
X1064908Y2057784D1*
X1071684Y2065718D1*
X1079618Y2072494D1*
X1088514Y2077946D1*
X1098154Y2081939D1*
X1108299Y2084374D1*
X1118701Y2085193D1*
X1129102Y2084374D1*
X1139248Y2081939D1*
X1148888Y2077946D1*
X1157784Y2072494D1*
X1165718Y2065718D1*
X1172494Y2057784D1*
X1177946Y2048888D1*
X1181939Y2039248D1*
X1184374Y2029102D1*
X1185193Y2018701D1*
X1184374Y2008299D1*
X1182011Y1998409D1*
X1424752Y1755683D1*
X1860397Y1755724D1*
X1733195Y1883065D1*
X1729221Y1889012D1*
X1726745Y1895723D1*
X1725904Y1902827D1*
X1725917Y1903153D1*
X1725904Y2342231D1*
X1717395Y2348319D1*
X1710742Y2354972D1*
X1705212Y2362583D1*
X1700941Y2370966D1*
X1698033Y2379914D1*
X1696561Y2389207D1*
Y2398615D1*
X1698033Y2407907D1*
X1700941Y2416855D1*
X1705212Y2425238D1*
X1710742Y2432850D1*
X1717395Y2439502D1*
X1723034Y2443714D1*
X418701Y2443701D1*
Y418701D1*
X3893701D1*
Y2443701D1*
X2501757D1*
X2507640Y2439292D1*
X2514292Y2432640D1*
X2519822Y2425028D1*
X2524094Y2416645D1*
X2527001Y2407697D1*
X2528473Y2398405D1*
Y2388997D1*
X2527001Y2379704D1*
X2524094Y2370756D1*
X2522377Y2367032D1*
X2759314Y2367237D1*
X2764427Y2370951D1*
X2770057Y2373820D1*
X2776067Y2375773D1*
X2782309Y2376762D1*
X2788628D1*
X2794870Y2375773D1*
X2800880Y2373820D1*
X2806510Y2370951D1*
X2811623Y2367237D1*
X2816091Y2362769D1*
X2819806Y2357656D1*
X2822675Y2352025D1*
X2824627Y2346015D1*
X2825616Y2339774D1*
Y2333454D1*
X2824627Y2327213D1*
X2822675Y2321203D1*
X2819806Y2315572D1*
X2816091Y2310460D1*
X2811623Y2305991D1*
X2806510Y2302277D1*
X2800880Y2299408D1*
X2794870Y2297455D1*
X2788628Y2296467D1*
X2782309D1*
X2776067Y2297455D1*
X2770057Y2299408D1*
X2764427Y2302277D1*
X2759087Y2306201D1*
X2423400Y2306279D1*
X2416384Y2307674D1*
X2409888Y2310669D1*
X2404271Y2315097D1*
X2404049Y2315337D1*
X2383727Y2335641D1*
X2373405Y2333929D1*
X2363997D1*
X2354704Y2335401D1*
X2345756Y2338308D1*
X2337374Y2342579D1*
X2329762Y2348109D1*
X2323109Y2354762D1*
X2318734Y2360646D1*
X901040Y896993D2*
X909154Y900328D1*
X918272Y902517D1*
X927621Y903253D1*
X936969Y902517D1*
X946088Y900328D1*
X954751Y896740D1*
X962747Y891840D1*
X969877Y885750D1*
X975967Y878619D1*
X980867Y870624D1*
X982118Y867910D1*
X985722Y874718D1*
X991234Y882304D1*
X997865Y888935D1*
X1005451Y894447D1*
X1013807Y898704D1*
X1022725Y901602D1*
X1031987Y903069D1*
X1041365D1*
X1050627Y901602D1*
X1059545Y898704D1*
X1067900Y894447D1*
X1075487Y888935D1*
X1082118Y882304D1*
X1087629Y874718D1*
X1091173Y867910D1*
X1094777Y874718D1*
X1100289Y882304D1*
X1106920Y888935D1*
X1114507Y894447D1*
X1122862Y898704D1*
X1131780Y901602D1*
X1141042Y903069D1*
X1150420D1*
X1159682Y901602D1*
X1168600Y898704D1*
X1176955Y894447D1*
X1184542Y888935D1*
X1187220Y886459D1*
X1580805Y1280053D1*
X1577271Y1277990D1*
X1556089Y1256940D1*
X1550141Y1252966D1*
X1543430Y1250490D1*
X1536327Y1249649D1*
X1536000Y1249662D1*
X824169Y1249649D1*
X824172Y975049D1*
X898140Y901014D1*
X901024Y897013D1*
X1282956Y896158D2*
X1289912Y891840D1*
X1297043Y885750D1*
X1303133Y878619D1*
X1308032Y870624D1*
X1309283Y867910D1*
X1312888Y874718D1*
X1318399Y882304D1*
X1325030Y888935D1*
X1332617Y894447D1*
X1340972Y898704D1*
X1349891Y901602D1*
X1359153Y903069D1*
X1368530D1*
X1377792Y901602D1*
X1386710Y898704D1*
X1395066Y894447D1*
X1402652Y888935D1*
X1409283Y882304D1*
X1414795Y874718D1*
X1418338Y867910D1*
X1421943Y874718D1*
X1427455Y882304D1*
X1434085Y888935D1*
X1441672Y894447D1*
X1450027Y898704D1*
X1458946Y901602D1*
X1468208Y903069D1*
X1477585D1*
X1486847Y901602D1*
X1493100Y899688D1*
X1494007Y906097D1*
X1495674Y911226D1*
X1498122Y916031D1*
X1501292Y920394D1*
X1526758Y945861D1*
X1531121Y949030D1*
X1535926Y951479D1*
X1541055Y953145D1*
X1546381Y953989D1*
X1649077Y954095D1*
X1714068D1*
X1715583Y966386D1*
Y1286747D1*
X1706765Y1293140D1*
X1699388Y1300518D1*
X1694263Y1307450D1*
X1282988Y896169D1*
X1641527Y838805D2*
X1639806Y828643D1*
X1830550Y637914D1*
X1944155Y637925D1*
X1944138Y1376901D1*
X1807516Y1376894D1*
X1811379Y1369146D1*
X1814604Y1359223D1*
X1816236Y1348918D1*
Y1338484D1*
X1814604Y1328179D1*
X1811379Y1318255D1*
X1806642Y1308959D1*
X1800510Y1300518D1*
X1793132Y1293140D1*
X1784317Y1286798D1*
X1784209Y938689D1*
X1783366Y933363D1*
X1781699Y928234D1*
X1779251Y923429D1*
X1776081Y919067D1*
X1750610Y893596D1*
X1746248Y890426D1*
X1741443Y887978D1*
X1736314Y886312D1*
X1730988Y885468D1*
X1624629Y885362D1*
X1630298Y878619D1*
X1635198Y870624D1*
X1638786Y861960D1*
X1640976Y852842D1*
X1641711Y843493D1*
X1641527Y838805D1*
X883151Y2002452D2*
X880132Y1993255D1*
X875395Y1983959D1*
X869262Y1975518D1*
X861884Y1968140D1*
X853443Y1962007D1*
X844146Y1957270D1*
X834223Y1954046D1*
X824140Y1952440D1*
X824172Y1405036D1*
X834426Y1408356D1*
X844732Y1409988D1*
X855165D1*
X865471Y1408356D1*
X875394Y1405132D1*
X884691Y1400395D1*
X893132Y1394262D1*
X900510Y1386884D1*
X906642Y1378443D1*
X911379Y1369146D1*
X914604Y1359223D1*
X916236Y1348918D1*
Y1338484D1*
X914604Y1328179D1*
X911379Y1318255D1*
X907509Y1310507D1*
X942327Y1310508D1*
X938518Y1318255D1*
X935294Y1328179D1*
X933661Y1338484D1*
Y1348918D1*
X935294Y1359223D1*
X938518Y1369146D1*
X943255Y1378443D1*
X949388Y1386884D1*
X956765Y1394262D1*
X965207Y1400395D1*
X974503Y1405132D1*
X984426Y1408356D1*
X994732Y1409988D1*
X1005165D1*
X1015471Y1408356D1*
X1025394Y1405132D1*
X1034691Y1400395D1*
X1043132Y1394262D1*
X1050510Y1386884D1*
X1056642Y1378443D1*
X1061379Y1369146D1*
X1064604Y1359223D1*
X1066236Y1348918D1*
Y1338484D1*
X1064604Y1328179D1*
X1061379Y1318255D1*
X1057509Y1310507D1*
X1242327Y1310508D1*
X1238518Y1318255D1*
X1235294Y1328179D1*
X1233661Y1338484D1*
Y1348918D1*
X1235294Y1359223D1*
X1236639Y1363993D1*
X890432Y1710317D1*
X886458Y1716264D1*
X883982Y1722975D1*
X883142Y1730079D1*
X883154Y1730405D1*
X883142Y2002296D1*
X988993Y1955391D2*
X979102Y1953027D1*
X968701Y1952209D1*
X958299Y1953027D1*
X948154Y1955463D1*
X944002Y1956995D1*
X944000Y1742616D1*
X1279630Y1407054D1*
X1289547Y1409374D1*
X1299949Y1410193D1*
X1310350Y1409374D1*
X1320496Y1406939D1*
X1330135Y1402946D1*
X1339032Y1397494D1*
X1346966Y1390718D1*
X1353742Y1382784D1*
X1359193Y1373888D1*
X1363186Y1364248D1*
X1365622Y1354102D1*
X1366441Y1343701D1*
X1365622Y1333299D1*
X1363186Y1323154D1*
X1359193Y1313514D1*
X1357509Y1310507D1*
X1392327Y1310508D1*
X1388518Y1318255D1*
X1385294Y1328179D1*
X1383661Y1338484D1*
Y1348918D1*
X1385294Y1359223D1*
X1388518Y1369146D1*
X1393255Y1378443D1*
X1399388Y1386884D1*
X1406765Y1394262D1*
X1415207Y1400395D1*
X1419530Y1402816D1*
X1419520Y1524902D1*
X989011Y1955357D1*
X1184988Y2213484D2*
X1183356Y2203179D1*
X1180132Y2193255D1*
X1175395Y2183959D1*
X1169262Y2175518D1*
X1161884Y2168140D1*
X1153443Y2162007D1*
X1144146Y2157270D1*
X1134223Y2154046D1*
X1123918Y2152414D1*
X1113484D1*
X1103179Y2154046D1*
X1093255Y2157270D1*
X1083959Y2162007D1*
X1075518Y2168140D1*
X1068140Y2175518D1*
X1062007Y2183959D1*
X1057270Y2193255D1*
X1054046Y2203179D1*
X1052414Y2213484D1*
Y2223918D1*
X1054046Y2234223D1*
X1057270Y2244146D1*
X1062007Y2253443D1*
X1068140Y2261884D1*
X1075518Y2269262D1*
X1083959Y2275395D1*
X1093255Y2280132D1*
X1103179Y2283356D1*
X1113484Y2284988D1*
X1123918D1*
X1134223Y2283356D1*
X1144146Y2280132D1*
X1153443Y2275395D1*
X1161884Y2269262D1*
X1169262Y2261884D1*
X1175395Y2253443D1*
X1180132Y2244146D1*
X1183356Y2234223D1*
X1184988Y2223918D1*
Y2213484D1*
X1034988D2*
X1033356Y2203179D1*
X1030132Y2193255D1*
X1025395Y2183959D1*
X1019262Y2175518D1*
X1011884Y2168140D1*
X1003443Y2162007D1*
X994146Y2157270D1*
X984223Y2154046D1*
X973918Y2152414D1*
X963484D1*
X953179Y2154046D1*
X943255Y2157270D1*
X933959Y2162007D1*
X925518Y2168140D1*
X918140Y2175518D1*
X912007Y2183959D1*
X907270Y2193255D1*
X904046Y2203179D1*
X902414Y2213484D1*
Y2223918D1*
X904046Y2234223D1*
X907270Y2244146D1*
X912007Y2253443D1*
X918140Y2261884D1*
X925518Y2269262D1*
X933959Y2275395D1*
X943255Y2280132D1*
X953179Y2283356D1*
X963484Y2284988D1*
X973918D1*
X984223Y2283356D1*
X994146Y2280132D1*
X1003443Y2275395D1*
X1011884Y2269262D1*
X1019262Y2261884D1*
X1025395Y2253443D1*
X1030132Y2244146D1*
X1033356Y2234223D1*
X1034988Y2223918D1*
Y2213484D1*
X884988D2*
X883356Y2203179D1*
X880132Y2193255D1*
X875395Y2183959D1*
X869262Y2175518D1*
X861884Y2168140D1*
X853443Y2162007D1*
X844146Y2157270D1*
X834223Y2154046D1*
X823918Y2152414D1*
X813484D1*
X803179Y2154046D1*
X793255Y2157270D1*
X783959Y2162007D1*
X775518Y2168140D1*
X768140Y2175518D1*
X762007Y2183959D1*
X757270Y2193255D1*
X754046Y2203179D1*
X752414Y2213484D1*
Y2223918D1*
X754046Y2234223D1*
X757270Y2244146D1*
X762007Y2253443D1*
X768140Y2261884D1*
X775518Y2269262D1*
X783959Y2275395D1*
X793255Y2280132D1*
X803179Y2283356D1*
X813484Y2284988D1*
X823918D1*
X834223Y2283356D1*
X844146Y2280132D1*
X853443Y2275395D1*
X861884Y2269262D1*
X869262Y2261884D1*
X875395Y2253443D1*
X880132Y2244146D1*
X883356Y2234223D1*
X884988Y2223918D1*
Y2213484D1*
X3053348Y908780D2*
X3082743D1*
X3082771Y1296397D1*
X3073599Y1290752D1*
X3063959Y1286759D1*
X3053814Y1284323D1*
X3043412Y1283505D1*
X3033010Y1284323D1*
X3022865Y1286759D1*
X3013225Y1290752D1*
X3004249Y1296267D1*
X3004269Y957843D1*
X3053396Y908748D1*
X3143631Y897060D2*
X3152015Y902266D1*
X3160679Y905855D1*
X3169797Y908044D1*
X3179146Y908780D1*
X3188494Y908044D1*
X3197612Y905855D1*
X3206276Y902266D1*
X3212885Y898293D1*
X3212870Y1986257D1*
X3114041Y1986205D1*
X3119183Y1982682D1*
X3136339Y1965526D1*
X3140313Y1959578D1*
X3142789Y1952867D1*
X3143630Y1945764D1*
X3143617Y1945437D1*
X3143630Y897082D1*
X3273703Y906974D2*
X3283512Y908596D1*
X3292889D1*
X3302151Y907129D1*
X3311070Y904231D1*
X3319425Y899974D1*
X3327012Y894462D1*
X3333643Y887831D1*
X3339154Y880244D1*
X3342698Y873437D1*
X3346302Y880244D1*
X3351814Y887831D1*
X3358445Y894462D1*
X3366847Y900430D1*
X3366827Y1287740D1*
X3358934Y1285342D1*
X3348629Y1283710D1*
X3338195D1*
X3327890Y1285342D1*
X3317967Y1288566D1*
X3308670Y1293303D1*
X3300229Y1299436D1*
X3292851Y1306814D1*
X3286718Y1315255D1*
X3281981Y1324551D1*
X3278757Y1334474D1*
X3277125Y1344780D1*
X3277091Y1354337D1*
X3273720Y1353843D1*
X3273728Y907005D1*
X3366839Y1972885D2*
X3361884Y1968128D1*
X3353443Y1961996D1*
X3344146Y1957259D1*
X3334223Y1954035D1*
X3323918Y1952402D1*
X3313484D1*
X3303179Y1954035D1*
X3293255Y1957259D1*
X3283959Y1961996D1*
X3275518Y1968128D1*
X3273706Y1969804D1*
X3273728Y1433763D1*
X3281447Y1432106D1*
X3287286Y1429688D1*
X3292674Y1426386D1*
X3297479Y1422282D1*
X3301583Y1417477D1*
X3304885Y1412089D1*
X3307400Y1405906D1*
X3317967Y1411427D1*
X3327890Y1414652D1*
X3338195Y1416284D1*
X3348629D1*
X3358934Y1414652D1*
X3366849Y1412169D1*
X3366827Y1972799D1*
X3254251Y2034938D2*
X3257270Y2044135D1*
X3262007Y2053432D1*
X3268140Y2061873D1*
X3275518Y2069250D1*
X3283959Y2075383D1*
X3293255Y2080120D1*
X3300803Y2082675D1*
X2553808Y2082468D1*
X2548695Y2078753D1*
X2543065Y2075884D1*
X2537055Y2073932D1*
X2530813Y2072943D1*
X2524494D1*
X2518252Y2073932D1*
X2512242Y2075884D1*
X2506612Y2078753D1*
X2501499Y2082468D1*
X2497031Y2086936D1*
X2493316Y2092049D1*
X2490447Y2097679D1*
X2488495Y2103689D1*
X2487977Y2106294D1*
X2346357Y2106283D1*
X2346374Y2026595D1*
X2348184Y2032045D1*
X2351053Y2037676D1*
X2354767Y2042788D1*
X2359235Y2047257D1*
X2364348Y2050971D1*
X2369978Y2053840D1*
X2375989Y2055793D1*
X2382230Y2056781D1*
X2388549D1*
X2394791Y2055793D1*
X2400801Y2053840D1*
X2406432Y2050971D1*
X2411771Y2047047D1*
X3231907Y2046969D1*
X3238923Y2045574D1*
X3245419Y2042579D1*
X3251036Y2038151D1*
X3251258Y2037911D1*
X3254234Y2034953D1*
X2464897Y1287105D2*
X2458934Y1285342D1*
X2448629Y1283710D1*
X2438195D1*
X2427890Y1285342D1*
X2417967Y1288566D1*
X2408670Y1293303D1*
X2400229Y1299436D1*
X2392851Y1306814D1*
X2386718Y1315255D1*
X2384277Y1319614D1*
X2260668Y1319613D1*
X2355574Y1224618D1*
X2359548Y1218670D1*
X2362024Y1211959D1*
X2362865Y1204856D1*
X2362852Y1204529D1*
X2362865Y822483D1*
X2369124Y817857D1*
X2375393Y811589D1*
X2380603Y804417D1*
X2384628Y796519D1*
X2387367Y788088D1*
X2388754Y779333D1*
Y770468D1*
X2387367Y761712D1*
X2384628Y753282D1*
X2380459Y745167D1*
X2394979Y745079D1*
X2401995Y743684D1*
X2408491Y740689D1*
X2414109Y736261D1*
X2414330Y736021D1*
X2420289Y730081D1*
X2428003Y731218D1*
X2436868D1*
X2445624Y729832D1*
X2454054Y727092D1*
X2461953Y723068D1*
X2464906Y721094D1*
X2464901Y1287057D1*
X2384317Y1380450D2*
X2389619Y1389080D1*
X2396395Y1397014D1*
X2404329Y1403790D1*
X2413225Y1409242D1*
X2422865Y1413234D1*
X2433010Y1415670D1*
X2443412Y1416489D1*
X2453814Y1415670D1*
X2464897Y1412889D1*
X2464901Y1482174D1*
X2385273Y1482233D1*
X2378257Y1483628D1*
X2371761Y1486623D1*
X2366143Y1491052D1*
X2365922Y1491291D1*
X2249340Y1607855D1*
X2249322Y1380438D1*
X2384322Y1380471D1*
X3004249Y1403727D2*
X3013225Y1409242D1*
X3022865Y1413234D1*
X3033010Y1415670D1*
X3043412Y1416489D1*
X3053814Y1415670D1*
X3063959Y1413234D1*
X3073599Y1409242D1*
X3082800Y1403550D1*
X3082771Y1929112D1*
X2997810Y1929114D1*
X3000952Y1924148D1*
X3003428Y1917437D1*
X3004269Y1910333D1*
Y1403742D1*
X2175963Y774398D2*
X2176639Y783738D1*
X2178708Y792357D1*
X2182101Y800547D1*
X2186733Y808106D1*
X2192490Y814846D1*
X2199230Y820603D1*
X2206789Y825235D1*
X2214979Y828627D1*
X2223598Y830697D1*
X2232436Y831392D1*
X2241273Y830697D1*
X2244723Y830011D1*
X2244719Y922582D1*
X2237701Y924210D1*
X2231863Y926628D1*
X2226475Y929930D1*
X2221669Y934034D1*
X2217565Y938839D1*
X2214263Y944228D1*
X2211845Y950066D1*
X2210370Y956211D1*
X2209874Y962510D1*
X2210370Y968810D1*
X2211781Y974729D1*
X2155950Y1030540D1*
X2155977Y794346D1*
X2175963Y774407D1*
X2175944Y665430D2*
Y688379D1*
X2102409Y762026D1*
X2098435Y767974D1*
X2095959Y774685D1*
X2095118Y781789D1*
X2095131Y782115D1*
X2095118Y1557912D1*
X2090265Y1554219D1*
X2083769Y1551224D1*
X2076754Y1549829D1*
X1936866Y1549735D1*
X1849024D1*
X1737051Y1437769D1*
X1957907Y1437752D1*
X1957728Y1444703D1*
X1954013Y1449815D1*
X1951144Y1455446D1*
X1949191Y1461456D1*
X1948203Y1467697D1*
Y1474017D1*
X1949191Y1480258D1*
X1951144Y1486268D1*
X1954013Y1491899D1*
X1957728Y1497011D1*
X1962196Y1501480D1*
X1967309Y1505194D1*
X1972939Y1508063D1*
X1978949Y1510016D1*
X1985191Y1511004D1*
X1991510D1*
X1997752Y1510016D1*
X2003762Y1508063D1*
X2009392Y1505194D1*
X2014505Y1501480D1*
X2018973Y1497011D1*
X2022688Y1491899D1*
X2025557Y1486268D1*
X2027509Y1480258D1*
X2028498Y1474017D1*
Y1467697D1*
X2027509Y1461456D1*
X2025557Y1455446D1*
X2022688Y1449815D1*
X2018764Y1444476D1*
X2018780Y665437D1*
X2175908Y665484D1*
X2427808Y1584416D2*
X2426273Y1576237D1*
X2431884Y1579704D1*
X2437722Y1582122D1*
X2443867Y1583597D1*
X2451142Y1584055D1*
X2451122Y1589317D1*
X2376031Y1664565D1*
X2372057Y1670512D1*
X2369581Y1677223D1*
X2368740Y1684327D1*
X2368753Y1684653D1*
X2368834Y1868206D1*
X2370229Y1875222D1*
X2373224Y1881718D1*
X2377653Y1887336D1*
X2377892Y1887557D1*
X2391727Y1901388D1*
X2392387Y1903072D1*
X2389518Y1908703D1*
X2387565Y1914713D1*
X2386577Y1920954D1*
Y1927274D1*
X2387565Y1933515D1*
X2389518Y1939525D1*
X2392387Y1945156D1*
X2396102Y1950269D1*
X2400570Y1954737D1*
X2405683Y1958451D1*
X2411313Y1961320D1*
X2417323Y1963273D1*
X2423565Y1964262D1*
X2429884D1*
X2436126Y1963273D1*
X2442136Y1961320D1*
X2447766Y1958451D1*
X2453106Y1954527D1*
X2524625Y1954543D1*
X2524478Y1962703D1*
X2525467Y1968945D1*
X2527420Y1974955D1*
X2530289Y1980585D1*
X2534481Y1986215D1*
X2411544Y1986011D1*
X2406432Y1982297D1*
X2400801Y1979428D1*
X2394791Y1977475D1*
X2388549Y1976486D1*
X2382230D1*
X2375989Y1977475D1*
X2369978Y1979428D1*
X2364348Y1982297D1*
X2359235Y1986011D1*
X2354767Y1990480D1*
X2351053Y1995592D1*
X2348184Y2001223D1*
X2346362Y2006769D1*
X2346374Y1671908D1*
X2390820Y1627724D1*
X2397061Y1626735D1*
X2403071Y1624782D1*
X2408702Y1621913D1*
X2413814Y1618199D1*
X2418283Y1613730D1*
X2421997Y1608618D1*
X2424866Y1602987D1*
X2426819Y1596977D1*
X2427808Y1590736D1*
Y1584416D1*
X2553310Y1662490D2*
X2558153Y1667434D1*
X2563265Y1671148D1*
X2568896Y1674017D1*
X2574906Y1675970D1*
X2577511Y1676488D1*
X2577306Y1827247D1*
X2573592Y1832360D1*
X2570723Y1837990D1*
X2568770Y1844000D1*
X2567908Y1849175D1*
X2429624Y1849169D1*
X2432193Y1843194D1*
X2438203Y1841242D1*
X2443833Y1838373D1*
X2449172Y1834449D1*
X2511498Y1834371D1*
X2518513Y1832975D1*
X2525009Y1829981D1*
X2530627Y1825552D1*
X2530849Y1825312D1*
X2546028Y1810018D1*
X2550002Y1804070D1*
X2552478Y1797359D1*
X2553319Y1790256D1*
X2553306Y1789929D1*
X2553319Y1662570D1*
X2278032Y991532D2*
X2282726Y986182D1*
X2286028Y980793D1*
X2288446Y974955D1*
X2289922Y968810D1*
X2290305Y965362D1*
X2299766Y955394D1*
X2301290Y953057D1*
X2302007Y962400D1*
Y1192234D1*
X2170534Y1323746D1*
X2169756Y1319823D1*
Y1102782D1*
X2273284Y999140D1*
X2277258Y993193D1*
X2277426Y992828D1*
X2277258Y993193D1*
X2277426Y992828D1*
X1973697Y1964275D2*
X1977621Y1958936D1*
X1980490Y1953305D1*
X1982442Y1947295D1*
X1983431Y1941053D1*
Y1934734D1*
X1982442Y1928492D1*
X1980490Y1922482D1*
X1977621Y1916852D1*
X1973906Y1911739D1*
X1969438Y1907271D1*
X1964325Y1903556D1*
X1958695Y1900688D1*
X1952685Y1898735D1*
X1946443Y1897746D1*
X1940124D1*
X1933882Y1898735D1*
X1927872Y1900688D1*
X1922242Y1903556D1*
X1917129Y1907271D1*
X1912661Y1911739D1*
X1908946Y1916852D1*
X1906077Y1922482D1*
X1904125Y1928492D1*
X1903136Y1934734D1*
Y1941053D1*
X1904125Y1947295D1*
X1906077Y1953305D1*
X1908946Y1958936D1*
X1912870Y1964275D1*
X1912948Y2284712D1*
X1914343Y2291727D1*
X1917338Y2298223D1*
X1921767Y2303841D1*
X1947601Y2329541D1*
X1953548Y2333515D1*
X1960259Y2335990D1*
X1967363Y2336831D1*
X2117635Y2336737D1*
X2124651Y2335341D1*
X2131147Y2332347D1*
X2136765Y2327918D1*
X2136986Y2327678D1*
X2138318Y2326365D1*
X2138272Y2342006D1*
X2131147Y2332347D1*
X2136765Y2327918D1*
X2138288Y2342067D1*
X2129762Y2348109D1*
X2123109Y2354762D1*
X2117579Y2362374D1*
X2113308Y2370756D1*
X2110401Y2379704D1*
X2108929Y2388997D1*
Y2398405D1*
X2110401Y2407697D1*
X2113308Y2416645D1*
X2117579Y2425028D1*
X2123109Y2432640D1*
X2129762Y2439292D1*
X2135707Y2443709D1*
X1789746Y2443701D1*
X1795272Y2439502D1*
X1801925Y2432850D1*
X1807455Y2425238D1*
X1811726Y2416855D1*
X1814633Y2407907D1*
X1816105Y2398615D1*
Y2389207D1*
X1814633Y2379914D1*
X1811726Y2370966D1*
X1807455Y2362583D1*
X1801925Y2354972D1*
X1795272Y2348319D1*
X1786746Y2342277D1*
X1786763Y1915444D1*
X1913402Y1789065D1*
X1919644Y1788076D1*
X1925654Y1786123D1*
X1931285Y1783255D1*
X1936397Y1779540D1*
X1940866Y1775072D1*
X1944580Y1769959D1*
X1947449Y1764329D1*
X1949402Y1758319D1*
X1949920Y1755714D1*
X1989304Y1755724D1*
X2054249Y1820979D1*
X2055237Y1827220D1*
X2057190Y1833230D1*
X2060059Y1838861D1*
X2063774Y1843973D1*
X2068242Y1848442D1*
X2073354Y1852156D1*
X2078985Y1855025D1*
X2084995Y1856978D1*
X2091237Y1857966D1*
X2095125Y1858062D1*
X2094829Y1866250D1*
X2088587Y1867239D1*
X2082577Y1869191D1*
X2076946Y1872060D1*
X2071834Y1875775D1*
X2067365Y1880243D1*
X2063651Y1885356D1*
X2060782Y1890986D1*
X2058839Y1896961D1*
X1998990Y1956945D1*
X1995820Y1961308D1*
X1993372Y1966112D1*
X1991705Y1971241D1*
X1990862Y1976567D1*
X1990756Y2079264D1*
Y2254117D1*
X1987916Y2259737D1*
X1985963Y2265747D1*
X1984975Y2271989D1*
X1984883Y2275975D1*
X1973713Y2269775D1*
Y1964307D1*
X2065270Y2271989D2*
X2064281Y2265747D1*
X2062328Y2259737D1*
X2059477Y2254139D1*
X2059482Y2115655D1*
X2067334Y2115836D1*
X2073576Y2114848D1*
X2079586Y2112895D1*
X2085216Y2110026D1*
X2090329Y2106312D1*
X2094797Y2101843D1*
X2098512Y2096731D1*
X2101381Y2091100D1*
X2103333Y2085090D1*
X2104334Y2078540D1*
X2108898Y2077697D1*
Y2269738D1*
X2102699Y2275972D1*
X2065395D1*
X1759232Y623165D2*
X1596767Y785628D1*
X1586640Y783918D1*
X1577263D1*
X1568001Y785385D1*
X1561782Y787286D1*
X1561790Y780546D1*
X1569680Y773939D1*
X1575771Y766808D1*
X1580670Y758813D1*
X1584259Y750149D1*
X1586448Y741031D1*
X1587184Y731682D1*
X1586448Y722334D1*
X1584259Y713215D1*
X1580670Y704552D1*
X1575771Y696556D1*
X1569680Y689426D1*
X1562550Y683336D1*
X1554554Y678436D1*
X1545891Y674847D1*
X1536772Y672658D1*
X1527424Y671922D1*
X1518075Y672658D1*
X1508957Y674847D1*
X1500293Y678436D1*
X1492298Y683336D1*
X1485167Y689426D1*
X1479077Y696556D1*
X1474177Y704552D1*
X1472927Y707265D1*
X1469322Y700458D1*
X1463811Y692871D1*
X1457180Y686241D1*
X1449593Y680729D1*
X1441238Y676471D1*
X1432319Y673574D1*
X1423057Y672107D1*
X1413680D1*
X1404418Y673574D1*
X1395500Y676471D1*
X1387144Y680729D1*
X1379558Y686241D1*
X1372927Y692871D1*
X1367415Y700458D1*
X1363872Y707265D1*
X1360267Y700458D1*
X1354755Y692871D1*
X1348125Y686241D1*
X1340538Y680729D1*
X1332183Y676471D1*
X1323264Y673574D1*
X1314002Y672107D1*
X1304625D1*
X1295363Y673574D1*
X1286445Y676471D1*
X1278089Y680729D1*
X1270503Y686241D1*
X1263872Y692871D1*
X1258360Y700458D1*
X1254816Y707265D1*
X1251212Y700458D1*
X1245700Y692871D1*
X1239069Y686241D1*
X1231483Y680729D1*
X1223128Y676471D1*
X1214209Y673574D1*
X1204947Y672107D1*
X1195570D1*
X1186308Y673574D1*
X1177389Y676471D1*
X1169034Y680729D1*
X1161448Y686241D1*
X1154817Y692871D1*
X1149305Y700458D1*
X1145761Y707265D1*
X1142157Y700458D1*
X1136645Y692871D1*
X1130014Y686241D1*
X1122428Y680729D1*
X1114073Y676471D1*
X1105154Y673574D1*
X1095892Y672107D1*
X1086515D1*
X1077253Y673574D1*
X1068334Y676471D1*
X1059979Y680729D1*
X1052392Y686241D1*
X1045762Y692871D1*
X1040250Y700458D1*
X1036706Y707265D1*
X1033102Y700458D1*
X1027590Y692871D1*
X1020959Y686241D1*
X1013373Y680729D1*
X1005017Y676471D1*
X996099Y673574D1*
X986837Y672107D1*
X977460D1*
X968198Y673574D1*
X959279Y676471D1*
X950924Y680729D1*
X943337Y686241D1*
X936707Y692871D1*
X931195Y700458D1*
X927651Y707265D1*
X924047Y700458D1*
X918535Y692871D1*
X911904Y686241D1*
X904318Y680729D1*
X895962Y676471D1*
X887044Y673574D1*
X877782Y672107D1*
X868404D1*
X859143Y673574D1*
X850224Y676471D1*
X841869Y680729D1*
X834282Y686241D1*
X827651Y692871D1*
X822140Y700458D1*
X817882Y708813D1*
X814985Y717732D1*
X813518Y726994D1*
Y736371D1*
X814985Y745633D1*
X817882Y754551D1*
X822140Y762907D1*
X827651Y770493D1*
X834282Y777124D1*
X841869Y782636D1*
X844571Y784150D1*
X844572Y868632D1*
X799243Y913977D1*
X799287Y631190D1*
X807282Y623160D1*
X1759236D1*
D16*
X2734286Y2187400D3*
D17*
X2834286D3*
D19*
X1606201Y1818701D3*
D20*
X1506201D3*
D19*
X2706201D3*
D20*
X2806201D3*
D21*
X2068701Y2393701D3*
D22*
X2168701D3*
X2268701D3*
X2368701D3*
X2468701D3*
D23*
X818566Y843493D3*
D24*
X927621D3*
X1036676D3*
X1145731D3*
X1254786D3*
X1363841D3*
X1472896D3*
X1581951D3*
X873093Y731682D3*
X982148D3*
X1091203D3*
X1200259D3*
X1309314D3*
X1418369D3*
X1527424D3*
D25*
X544353Y787588D3*
X1856164D3*
D26*
X668701Y2018701D3*
X818701D3*
X968701D3*
X1118701D3*
Y2218701D3*
X968701D3*
X818701D3*
D23*
X3070091Y849020D3*
D24*
X3179146D3*
X3288201D3*
X3397256D3*
X3506311D3*
X3124618Y737209D3*
X3233673D3*
X3342728D3*
X3451783D3*
D27*
X3780130Y793115D3*
X2796272D3*
D26*
X699949Y1343701D3*
X849949D3*
X999949D3*
X1299949D3*
X1449949D3*
X1599949D3*
X1749949D3*
X3318701Y2018689D3*
X3468701D3*
X3618701D3*
X2443412Y1349997D3*
X2743412D3*
X3043412D3*
X3193412D3*
X3343412D3*
X3493412D3*
X2893412D3*
X3643412D3*
D28*
X2432436Y674900D3*
Y774900D3*
X2332436Y674900D3*
Y774900D3*
X2232436D3*
D29*
Y674900D3*
D21*
X1656333Y2393911D3*
D22*
X1756333D3*
M02*
