M48
INCH
T01C0.0118
T02C0.028
T03C0.0354
T04C0.038
T05C0.0429
T06C0.0433
T07C0.05
T08C0.1252
T09C0.1283
%
T01
X+004250Y+024377
X+008562Y+019064
X+009813Y+019064
X+010500Y+015126
X+008625Y+014188
X+008312Y+012375
X+008938Y+009375
X+008187Y+006250
X+004250Y+004250
X+012438Y+009375
X+014063Y+009125
X+016438Y+009563
X+018189Y+009313
X+019251Y+009313
X+020689Y+010625
X+021897Y+009978
X+022501Y+009625
X+023064Y+009500
X+023064Y+008375
X+022126Y+008500
X+020689Y+006687
X+017438Y+006250
X+016001Y+007625
X+016438Y+012375
X+015188Y+012375
X+013626Y+014126
X+012000Y+013375
X+015810Y+015141
X+017209Y+015117
X+018251Y+013751
X+019376Y+013751
X+019884Y+014709
X+019207Y+015093
X+020689Y+014688
X+020243Y+016455
X+020944Y+017686
X+020944Y+018178
X+020980Y+019064
X+021923Y+019340
X+022001Y+019876
X+022126Y+020251
X+022564Y+021501
X+022189Y+022376
X+022189Y+023252
X+023189Y+023189
X+025127Y+022751
X+026752Y+022751
X+027064Y+022564
X+027855Y+023366
X+027855Y+021367
X+027815Y+020689
X+029440Y+018939
X+030377Y+018564
X+029440Y+017251
X+028935Y+017663
X+028690Y+017188
X+028002Y+016813
X+028002Y+016063
X+029315Y+016063
X+029377Y+014001
X+030877Y+012938
X+030065Y+010563
X+030752Y+009375
X+029627Y+007187
X+026502Y+007187
X+025843Y+008919
X+024189Y+010438
X+022814Y+013125
X+022439Y+013813
X+022126Y+012688
X+024689Y+014501
X+024502Y+015438
X+023877Y+015876
X+023502Y+015876
X+022876Y+015751
X+022923Y+017194
X+021687Y+017450
X+023564Y+018751
X+024267Y+019241
X+023854Y+020166
X+024627Y+020814
X+025277Y+021131
X+025646Y+019595
X+026079Y+018534
X+025752Y+018251
X+026939Y+017563
X+025843Y+016368
X+024582Y+016668
X+024267Y+017410
X+024228Y+018040
X+020642Y+020757
X+019814Y+021251
X+020626Y+021751
X+019814Y+022314
X+020251Y+022751
X+019433Y+019379
X+019168Y+018988
X+018345Y+018922
X+017176Y+018924
X+017070Y+017943
X+017063Y+016837
X+015773Y+016595
X+015767Y+017612
X+015919Y+018876
X+015854Y+021254
X+019102Y+017489
X+030565Y+020626
X+032690Y+019251
X+033628Y+020814
X+033690Y+016688
X+033440Y+008813
X+038878Y+004250
X+038816Y+024314
T02
X+016062Y+018187
X+015062Y+018187
X+027062Y+018187
X+028062Y+018187
T03
X+027343Y+021874
X+028343Y+021874
T04
X+024324Y+006749
X+024324Y+007749
X+023324Y+007749
X+023324Y+006749
X+022324Y+006749
X+022324Y+007749
T05
X+008186Y+008435
X+009276Y+008435
X+010367Y+008435
X+011457Y+008435
X+012548Y+008435
X+013638Y+008435
X+014729Y+008435
X+015820Y+008435
X+015274Y+007317
X+014184Y+007317
X+013093Y+007317
X+012003Y+007317
X+010912Y+007317
X+009821Y+007317
X+008731Y+007317
X+030701Y+008490
X+031791Y+008490
X+032882Y+008490
X+033973Y+008490
X+035063Y+008490
X+034518Y+007372
X+033427Y+007372
X+032337Y+007372
X+031246Y+007372
T06
X+020687Y+023937
X+021687Y+023937
X+022687Y+023937
X+023687Y+023937
X+024687Y+023937
X+017563Y+023939
X+016563Y+023939
T07
X+006687Y+020187
X+008187Y+020187
X+009687Y+020187
X+011187Y+020187
X+011187Y+022187
X+009687Y+022187
X+008187Y+022187
X+008499Y+013437
X+009999Y+013437
X+006999Y+013437
X+012999Y+013437
X+014499Y+013437
X+015999Y+013437
X+017499Y+013437
X+024434Y+013500
X+027434Y+013500
X+028934Y+013500
X+030434Y+013500
X+031934Y+013500
X+033434Y+013500
X+034934Y+013500
X+036434Y+013500
X+036187Y+020187
X+034687Y+020187
X+033187Y+020187
T08
X+005444Y+007876
X+018562Y+007876
T09
X+037801Y+007931
X+027963Y+007931
T00
M30
