G04 DipTrace 3.1.0.0*
G04 Top.gbr*
%MOIN*%
G04 #@! TF.FileFunction,Copper,L1,Top*
G04 #@! TF.Part,Single*
G04 #@! TA.AperFunction,Conductor*
%ADD13C,0.007874*%
%ADD14C,0.015748*%
G04 #@! TA.AperFunction,CopperBalancing*
%ADD15C,0.025*%
G04 #@! TA.AperFunction,ComponentPad*
%ADD16R,0.062992X0.062992*%
%ADD17C,0.062992*%
%ADD18R,0.035433X0.027559*%
G04 #@! TA.AperFunction,ComponentPad*
%ADD19C,0.05*%
%ADD20R,0.05X0.05*%
%ADD21R,0.066929X0.066929*%
%ADD22C,0.066929*%
%ADD23R,0.066535X0.066535*%
%ADD24C,0.066535*%
%ADD25C,0.188976*%
%ADD26C,0.08*%
%ADD27C,0.187402*%
%ADD28C,0.06*%
%ADD29R,0.06X0.06*%
%ADD30R,0.027559X0.035433*%
%ADD32R,0.070866X0.019685*%
%ADD33R,0.019685X0.070866*%
%ADD35R,0.07874X0.216535*%
G04 #@! TA.AperFunction,ViaPad*
%ADD36C,0.027559*%
%FSLAX26Y26*%
G04*
G70*
G90*
G75*
G01*
G04 Top*
%LPD*%
X2426724Y1741043D2*
D13*
Y1743843D1*
X2481845D1*
Y1748916D1*
X2387660Y1587576D2*
Y1626224D1*
X2383420Y1630465D1*
Y1650491D1*
X2785469Y2336614D2*
Y2136713D1*
X2288932Y1650491D2*
D14*
Y1549555D1*
X2283026Y1543650D1*
X2033026Y1874900D2*
X1940751D1*
X1916845Y1898806D1*
X1981367Y2231394D2*
X1943864D1*
X1925112Y2250146D1*
X1550072D1*
X1512568Y2212642D1*
X2481845Y1874900D2*
X2356613D1*
X2356407Y1875106D1*
X2257436Y2099310D2*
Y2149096D1*
X2256396Y2150135D1*
X1577322Y1659475D2*
Y1760613D1*
X1576715Y1761219D1*
Y1779706D1*
X1566783Y1789638D1*
Y1862512D1*
X1591869Y1887597D1*
X2481845Y1874900D2*
X2544133D1*
X2575180Y1843853D1*
Y1825101D1*
X2584307Y891906D2*
D13*
Y893753D1*
X1698255D1*
X1686323Y905685D1*
Y1429919D1*
X1700102Y1443698D1*
X1995521D1*
X2125346Y1573524D1*
X2197398D1*
X2225940Y1602066D1*
Y1650491D1*
X2657436Y1636810D2*
X2584307Y1636811D1*
X2706201Y1818701D2*
X2657436Y1769936D1*
Y1687991D1*
X2194444Y1650491D2*
Y1603051D1*
X1631791D1*
Y1630610D1*
X1606201Y1818701D2*
Y1681791D1*
X1631791D1*
X2064175Y2075689D2*
X1998972D1*
X1985193Y2061909D1*
Y2006790D1*
X2033026D1*
Y2000885D1*
X2192323Y1933961D2*
X2092083D1*
X2078303Y1947740D1*
Y2032381D1*
X2033026D1*
X3468701Y2018689D2*
Y1849900D1*
X3433026D1*
X2292323Y1719394D2*
X2055025D1*
X2053051Y1717420D1*
X2033026D1*
X2094396Y1768606D2*
X2322394D1*
X2378411Y1712589D1*
X2468919D1*
Y1717420D1*
X2481845D1*
X2094396Y1817819D2*
X2359602D1*
X2402325Y1775096D1*
X2481845D1*
Y1780412D1*
X1200259Y731682D2*
Y1094011D1*
X1449949Y1343701D1*
X2458224Y1666760D2*
Y1608957D1*
X2444445Y1595177D1*
X2414916D1*
Y1650491D1*
X2200140Y1987618D2*
X2115193D1*
X2099955Y2002856D1*
Y2099310D1*
X2893457Y1766299D2*
Y1893071D1*
X2879677Y1906850D1*
X2684996D1*
X2671217Y1920630D1*
Y2147858D1*
X2637686Y2181388D1*
X2243895D1*
X2225940Y2163433D1*
Y2099310D1*
X2212642Y2025122D2*
X2209622D1*
X2194444Y2040301D1*
Y2099310D1*
X3493412Y1349997D2*
Y1462508D1*
X3004482Y1951438D1*
X2698776D1*
X2684996Y1965218D1*
Y2162303D1*
X2650478Y2196822D1*
X2197467D1*
X2162948Y2162302D1*
Y2099310D1*
X2706444Y2256396D2*
X2662689Y2212642D1*
X2181388D1*
X2131451Y2162705D1*
Y2099310D1*
X2250146Y962510D2*
X2247472D1*
X2213297Y928335D1*
X2208026D1*
Y932370D1*
X2033026Y1937892D2*
X1943283D1*
Y1937894D1*
X1988350Y1470857D2*
X1583871D1*
X1543822Y1510907D1*
Y2211235D1*
X1563886Y2231299D1*
X1903734D1*
X1917514Y2217518D1*
Y1989075D1*
X1931295Y1975294D1*
X2033026D1*
Y1969388D1*
X2168701Y1744984D2*
X2306648D1*
X2320428Y1731205D1*
Y1650491D1*
Y1563681D1*
X2340459Y1543650D1*
X2350593D1*
X2519345D2*
X2450167D1*
Y1543822D1*
X2351924Y1650491D2*
Y1587576D1*
X2350156D1*
X2426724Y1924114D2*
X2334209D1*
X2320428Y1937895D1*
Y2099310D1*
X3179146Y849020D2*
Y852346D1*
X3138398Y893094D1*
Y1676846D1*
X3124617Y1690627D1*
X2854823D1*
X2841043Y1704407D1*
Y1853543D1*
X2827264Y1867323D1*
X2671217D1*
X2657437Y1881102D1*
Y2038287D1*
X2643657Y2052067D1*
X2434602D1*
Y1994980D1*
X2420823Y1981201D1*
X2365705D1*
X2351924Y1994982D1*
Y2099310D1*
X2385390Y2016634D2*
Y2077314D1*
X2383420Y2079283D1*
Y2099310D1*
X2527654Y2113091D2*
Y2134744D1*
X2414916D1*
Y2099310D1*
X3124618Y737209D2*
Y1626768D1*
X3110837Y1640549D1*
X2754824D1*
X2741043Y1654329D1*
Y1839764D1*
X2727264Y1853543D1*
X2657437D1*
X2643657Y1867323D1*
Y2018598D1*
X2629875Y2032381D1*
X2481845D1*
X2607929Y1853402D2*
Y1987102D1*
X2594147Y2000885D1*
X2481845D1*
X2564626Y1959543D2*
X2554781Y1969388D1*
X2481845D1*
Y1811908D2*
Y1817816D1*
X2436572D1*
X2422791Y1804035D1*
X1910243Y1748917D2*
X2012999D1*
X2013000Y1748916D1*
X2033026D1*
X2288932Y2099310D2*
D14*
Y1918209D1*
X2277122Y1906399D1*
X2340117Y1843404D1*
X2481845D1*
X818701Y2218701D2*
X875148Y2275148D1*
X2025122D1*
X2257436Y1650491D2*
Y1599117D1*
X2235780Y1577461D1*
X2231845D1*
Y1543650D1*
Y1522339D1*
X2253499Y1500685D1*
X2401774D1*
Y1543650D1*
X2033026Y1906396D2*
X2097988D1*
Y1906398D1*
X2231845Y1543650D2*
X2158470D1*
X2143066Y1528245D1*
Y1343701D1*
X1749949D1*
X2025122Y2275148D2*
X2449896D1*
X2482480Y2307732D1*
X2712633D1*
X2734286Y2286079D1*
Y2187400D1*
X3043412Y1349997D2*
Y1033609D1*
X3023043Y1013240D1*
Y707291D1*
X3044697Y685638D1*
X3484656D1*
X3506311Y707293D1*
Y849020D1*
X2570526Y1543650D2*
X2849759D1*
X3043412Y1349997D1*
X2481845Y1843404D2*
X2537067D1*
Y1591240D1*
X2570526D1*
Y1543650D1*
X3318701Y2018689D2*
X3381845Y1955545D1*
Y1849900D1*
X2734286Y2187400D2*
Y2040373D1*
X2755969Y2018689D1*
X3318701D1*
X2482480Y2307732D2*
X2468701Y2321512D1*
Y2393701D1*
X2143066Y1343701D2*
X2156845Y1329921D1*
Y932370D1*
X2401774Y1543650D2*
Y1557936D1*
X2421299Y1577461D1*
X2523287D1*
X2537067Y1591240D1*
X2097988Y1906398D2*
X2277122Y1906399D1*
X2033026Y1811908D2*
D13*
X1844936D1*
Y1853543D1*
X1646807D1*
X1633026Y1867324D1*
Y2062400D1*
Y2187400D2*
Y2217520D1*
X1844936D1*
Y2099408D1*
Y1931232D1*
X1932764Y1843404D1*
X2033026D1*
D36*
X424954Y2437665D3*
X981262Y1906360D3*
X424954Y424954D3*
X3881567Y2431415D3*
X3887818Y424954D3*
X1243790Y937508D3*
X2212642Y849999D3*
X856249Y1906360D3*
X862500Y1418808D3*
X1050020Y1512568D3*
X1200035Y1337550D3*
X1362552Y1412558D3*
X831247Y1237539D3*
X1518819D3*
X893753Y937508D3*
X2306402Y837497D3*
X818745Y624975D3*
X1406307Y912505D3*
X1643832Y1237539D3*
Y956260D3*
X1825101Y1375054D3*
X1937613D3*
X1818850Y931257D3*
X1925112D3*
X1743843Y624975D3*
X1600077Y762490D3*
X2189678Y997768D3*
X2068877Y1468814D3*
Y668730D3*
Y1062521D3*
X2212642Y1268793D3*
X2306402Y950009D3*
X1591869Y1887597D3*
X1585420Y2125391D3*
X2281399Y1312547D3*
X2418913Y1043769D3*
X2287650Y1575075D3*
X2243895Y1381304D3*
X2468919Y1450062D3*
X1916845Y1898806D3*
X2318903Y2318903D3*
X1834500Y1892163D3*
X1717618Y1892433D3*
X1706984Y1794286D3*
X1981367Y2231394D3*
X1706318Y1683701D3*
X1580954Y1514126D3*
X1576715Y1761219D3*
X1577322Y1659475D3*
X1720853Y1511703D3*
X1920707Y1509281D3*
X2024269Y1645546D3*
X1981367Y2125133D3*
X2062626Y2175138D3*
X2675190Y2275148D3*
X2512673D3*
X2218892Y2325154D3*
Y2237644D3*
X2781451Y2068877D3*
X3362762Y2081378D3*
X3056480Y2062626D3*
X2462668Y2081378D3*
X2356407Y1875106D3*
X2943969Y1893858D3*
Y1725091D3*
X2868961Y1718840D3*
X2256396Y2150135D3*
X2937718Y1400056D3*
X2800203Y1681336D3*
X2650188Y718735D3*
X2962720D3*
X2693942Y1756344D3*
X2800203Y1606328D3*
X2931467D3*
X3037728Y1856354D3*
X3075232Y937508D3*
X3006475Y1056270D3*
X3087734Y1293795D3*
X2575180Y1825101D3*
X3269003Y1925112D3*
X3369013Y1668835D3*
X3344010Y881252D3*
X2426724Y1741043D3*
X2387660Y1587576D3*
X2785469Y2136713D3*
Y2336614D3*
X2584307Y891906D3*
Y1636811D3*
X2064175Y2075689D3*
X2192323Y1933961D3*
X2292323Y1719394D3*
X2094396Y1768606D3*
Y1817819D3*
X2458224Y1666760D3*
X2200140Y1987618D3*
X2893457Y1766299D3*
X2212642Y2025122D3*
X2706444Y2256396D3*
X2250146Y962510D3*
X1943283Y1937894D3*
X1988350Y1470857D3*
X2168701Y1744984D3*
X2450167Y1543822D3*
X2350156Y1587576D3*
X2426724Y1924114D3*
X2385390Y2016634D3*
X2527654Y2113091D3*
X2607929Y1853402D3*
X2564626Y1959543D3*
X2422791Y1804035D3*
X1910243Y1748917D3*
X2025122Y2275148D3*
X2097988Y1906398D3*
X421201Y2418832D2*
D15*
X1699282D1*
X1813364D2*
X2111782D1*
X2525620D2*
X3891225D1*
X421201Y2393963D2*
X1693862D1*
X1818784D2*
X2106264D1*
X2531137D2*
X3891225D1*
X421201Y2369094D2*
X1699233D1*
X1813413D2*
X2111538D1*
X2525864D2*
X2759145D1*
X2811753D2*
X3891225D1*
X421201Y2344226D2*
X1720278D1*
X1792368D2*
X2132338D1*
X2205063D2*
X2232338D1*
X2305063D2*
X2332338D1*
X2405063D2*
X2431850D1*
X2505551D2*
X2743422D1*
X2827524D2*
X3891225D1*
X421201Y2319357D2*
X2431899D1*
X2824350D2*
X3891225D1*
X421201Y2294488D2*
X843422D1*
X2818393D2*
X3891225D1*
X421201Y2269619D2*
X773452D1*
X2495444D2*
X2665883D1*
X2818393D2*
X3891225D1*
X421201Y2244751D2*
X755044D1*
X2468393D2*
X2649282D1*
X2818393D2*
X3891225D1*
X421201Y2219882D2*
X749721D1*
X1187680D2*
X1512172D1*
X1950327D2*
X2143129D1*
X2818393D2*
X3891225D1*
X421201Y2195013D2*
X754067D1*
X883335D2*
X904067D1*
X1033335D2*
X1054067D1*
X1183335D2*
X1510903D1*
X1950424D2*
X2118227D1*
X2818393D2*
X3891225D1*
X421201Y2170144D2*
X770766D1*
X866635D2*
X920766D1*
X1016635D2*
X1070766D1*
X1166635D2*
X1510903D1*
X1679721D2*
X1776577D1*
X1950424D2*
X2099477D1*
X2818393D2*
X3891225D1*
X421201Y2145276D2*
X1510903D1*
X1576743D2*
X1776577D1*
X1950424D2*
X2061098D1*
X2827329D2*
X3891225D1*
X421201Y2120407D2*
X1510903D1*
X1576743D2*
X1776577D1*
X1950424D2*
X2061098D1*
X2824790D2*
X3891225D1*
X421201Y2095538D2*
X1510903D1*
X1679721D2*
X1776577D1*
X1950424D2*
X1973305D1*
X2453745D2*
X2488930D1*
X2771128D2*
X3891225D1*
X421201Y2070669D2*
X774721D1*
X862680D2*
X924721D1*
X1012680D2*
X1074721D1*
X1162680D2*
X1510903D1*
X1679721D2*
X1776577D1*
X2771128D2*
X3274721D1*
X3362680D2*
X3424721D1*
X3512680D2*
X3891225D1*
X421201Y2045801D2*
X755483D1*
X881919D2*
X905483D1*
X1031919D2*
X1055483D1*
X1181919D2*
X1510903D1*
X1679721D2*
X1776577D1*
X3381919D2*
X3405483D1*
X3531919D2*
X3891225D1*
X421201Y2020932D2*
X749770D1*
X1187631D2*
X1510903D1*
X1576743D2*
X1600112D1*
X1665952D2*
X1776577D1*
X3537631D2*
X3891225D1*
X421201Y1996063D2*
X753676D1*
X883725D2*
X903652D1*
X1033725D2*
X1053652D1*
X1183725D2*
X1510903D1*
X1576743D2*
X1600112D1*
X1665952D2*
X1776577D1*
X3533725D2*
X3891225D1*
X421201Y1971194D2*
X769692D1*
X867710D2*
X919692D1*
X1017710D2*
X1069692D1*
X1167710D2*
X1510903D1*
X1576743D2*
X1600112D1*
X1665952D2*
X1776577D1*
X3030258D2*
X3269643D1*
X3517758D2*
X3891225D1*
X421201Y1946325D2*
X1510903D1*
X1576743D2*
X1600112D1*
X1665952D2*
X1812026D1*
X1877866D2*
X1901381D1*
X3055112D2*
X3340004D1*
X3418686D2*
X3435805D1*
X3501596D2*
X3891225D1*
X421201Y1921457D2*
X1510903D1*
X1576743D2*
X1600112D1*
X1665952D2*
X1813637D1*
X3079965D2*
X3344985D1*
X3418686D2*
X3435805D1*
X3501596D2*
X3891225D1*
X421201Y1896588D2*
X1510903D1*
X1576743D2*
X1600112D1*
X1665952D2*
X1834047D1*
X1925083D2*
X1968618D1*
X2546274D2*
X2575014D1*
X2926157D2*
X3013833D1*
X3104868D2*
X3344985D1*
X3418686D2*
X3435805D1*
X3501596D2*
X3891225D1*
X421201Y1871719D2*
X1510903D1*
X1576743D2*
X1600112D1*
X2926352D2*
X3038686D1*
X3129721D2*
X3335122D1*
X3501596D2*
X3891225D1*
X421201Y1846850D2*
X1510903D1*
X2926352D2*
X3063540D1*
X3154575D2*
X3335122D1*
X3501450D2*
X3891225D1*
X421201Y1821982D2*
X1510903D1*
X1660092D2*
X1776577D1*
X2635629D2*
X2652304D1*
X2773960D2*
X2808120D1*
X2926352D2*
X3088442D1*
X3179477D2*
X3335122D1*
X3483286D2*
X3891225D1*
X421201Y1797113D2*
X1510903D1*
X1655454D2*
X1776577D1*
X2573911D2*
X2639077D1*
X2773960D2*
X2808120D1*
X2926352D2*
X3113296D1*
X3204331D2*
X3891225D1*
X421201Y1772244D2*
X1510903D1*
X1639096D2*
X1776577D1*
X2573911D2*
X2624624D1*
X2773960D2*
X2808120D1*
X2935776D2*
X3138149D1*
X3229184D2*
X3891225D1*
X421201Y1747375D2*
X1510903D1*
X1639096D2*
X1776577D1*
X2573911D2*
X2624526D1*
X2690366D2*
X2708120D1*
X2773960D2*
X2808120D1*
X2931528D2*
X3163051D1*
X3254038D2*
X3891225D1*
X421201Y1722507D2*
X1510903D1*
X1674546D2*
X1776577D1*
X2573911D2*
X2614663D1*
X2773960D2*
X2808120D1*
X2873960D2*
X3187905D1*
X3278940D2*
X3891225D1*
X421201Y1697638D2*
X1510903D1*
X1674546D2*
X1776577D1*
X1913315D2*
X1968618D1*
X2573911D2*
X2614663D1*
X2773960D2*
X2808901D1*
X3163120D2*
X3212758D1*
X3303794D2*
X3891225D1*
X421201Y1672769D2*
X1510903D1*
X1674546D2*
X1776577D1*
X1913315D2*
X2061098D1*
X2773960D2*
X2827163D1*
X3171323D2*
X3237612D1*
X3328647D2*
X3891225D1*
X421201Y1647900D2*
X1510903D1*
X1674546D2*
X1776577D1*
X1913315D2*
X2061098D1*
X3171323D2*
X3262514D1*
X3353549D2*
X3891225D1*
X421201Y1623031D2*
X1510903D1*
X2700229D2*
X2726821D1*
X3171323D2*
X3287368D1*
X3378403D2*
X3891225D1*
X421201Y1598163D2*
X1510903D1*
X2700229D2*
X3091713D1*
X3171323D2*
X3312221D1*
X3403256D2*
X3891225D1*
X421201Y1573294D2*
X1510903D1*
X1576743D2*
X1623012D1*
X2869712D2*
X3091713D1*
X3171323D2*
X3337124D1*
X3428159D2*
X3891225D1*
X421201Y1548425D2*
X1510903D1*
X1576743D2*
X2054751D1*
X2278549D2*
X2291616D1*
X2896176D2*
X3091713D1*
X3171323D2*
X3361977D1*
X3453012D2*
X3891225D1*
X421201Y1523556D2*
X1510903D1*
X1576743D2*
X2029848D1*
X2921030D2*
X3091713D1*
X3171323D2*
X3386831D1*
X3477866D2*
X3891225D1*
X421201Y1498688D2*
X1513491D1*
X2179917D2*
X2204409D1*
X2438559D2*
X2843764D1*
X2945932D2*
X3091713D1*
X3171323D2*
X3411733D1*
X3502768D2*
X3891225D1*
X421201Y1473819D2*
X1535415D1*
X2071176D2*
X2106215D1*
X2179917D2*
X2229604D1*
X2425669D2*
X2868618D1*
X2970786D2*
X3091713D1*
X3171323D2*
X3436587D1*
X3524155D2*
X3891225D1*
X421201Y1448950D2*
X1560268D1*
X2046274D2*
X2106215D1*
X2179917D2*
X2893471D1*
X2995639D2*
X3091713D1*
X3171323D2*
X3460512D1*
X3526352D2*
X3891225D1*
X421201Y1424081D2*
X1653383D1*
X2021421D2*
X2106215D1*
X2179917D2*
X2918325D1*
X3020493D2*
X3091713D1*
X3171323D2*
X3239956D1*
X3298081D2*
X3460512D1*
X3526352D2*
X3891225D1*
X421201Y1399213D2*
X810854D1*
X889047D2*
X960854D1*
X1039047D2*
X1260854D1*
X1339047D2*
X1410854D1*
X1489047D2*
X1560854D1*
X1639047D2*
X1653432D1*
X1789047D2*
X2106215D1*
X2179917D2*
X2396206D1*
X2490610D2*
X2696206D1*
X2790610D2*
X2846206D1*
X3171323D2*
X3226577D1*
X3390610D2*
X3446206D1*
X3540610D2*
X3596206D1*
X3690610D2*
X3891225D1*
X421201Y1374344D2*
X788442D1*
X911460D2*
X938442D1*
X1061460D2*
X1238442D1*
X1361460D2*
X1388442D1*
X1511460D2*
X1538442D1*
X2179917D2*
X2379018D1*
X2507797D2*
X2679018D1*
X2807797D2*
X2829018D1*
X3171323D2*
X3231264D1*
X3407797D2*
X3429018D1*
X3557797D2*
X3579018D1*
X3707797D2*
X3891225D1*
X421201Y1349475D2*
X781215D1*
X918686D2*
X931215D1*
X1068686D2*
X1231215D1*
X1368686D2*
X1381215D1*
X1518686D2*
X1531215D1*
X2187583D2*
X2374428D1*
X2512387D2*
X2674428D1*
X3171323D2*
X3274428D1*
X3712387D2*
X3891225D1*
X421201Y1324606D2*
X783754D1*
X916147D2*
X933754D1*
X1066147D2*
X1233754D1*
X1366147D2*
X1383754D1*
X1516147D2*
X1533754D1*
X2193686D2*
X2379458D1*
X2507358D2*
X2679458D1*
X2807358D2*
X2829458D1*
X2957358D2*
X2979458D1*
X3171323D2*
X3279458D1*
X3407358D2*
X3429458D1*
X3557358D2*
X3579458D1*
X3707358D2*
X3891225D1*
X421201Y1299738D2*
X797573D1*
X902329D2*
X947573D1*
X1052329D2*
X1247573D1*
X1502329D2*
X1547573D1*
X1802329D2*
X2119985D1*
X2193686D2*
X2397378D1*
X2489438D2*
X2697378D1*
X2789438D2*
X2847378D1*
X2939438D2*
X2997378D1*
X3171323D2*
X3297378D1*
X3389438D2*
X3447378D1*
X3539438D2*
X3597378D1*
X3689438D2*
X3891225D1*
X421201Y1274869D2*
X1335610D1*
X1426645D2*
X1653383D1*
X1719223D2*
X2119985D1*
X2193686D2*
X3006606D1*
X3171323D2*
X3891225D1*
X421201Y1250000D2*
X1310756D1*
X1401743D2*
X1653383D1*
X1719223D2*
X2119985D1*
X2193686D2*
X3006606D1*
X3171323D2*
X3891225D1*
X421201Y1225131D2*
X1285854D1*
X1376889D2*
X1653383D1*
X1719223D2*
X2119985D1*
X2193686D2*
X3006606D1*
X3171323D2*
X3891225D1*
X421201Y1200262D2*
X1261001D1*
X1352036D2*
X1653383D1*
X1719223D2*
X2119985D1*
X2193686D2*
X3006606D1*
X3171323D2*
X3891225D1*
X421201Y1175394D2*
X1236147D1*
X1327133D2*
X1653383D1*
X1719223D2*
X2119985D1*
X2193686D2*
X3006606D1*
X3171323D2*
X3891225D1*
X421201Y1150525D2*
X1211245D1*
X1302280D2*
X1653383D1*
X1719223D2*
X2119985D1*
X2193686D2*
X3006606D1*
X3171323D2*
X3891225D1*
X421201Y1125656D2*
X1186391D1*
X1277426D2*
X1653383D1*
X1719223D2*
X2119985D1*
X2193686D2*
X3006606D1*
X3171323D2*
X3891225D1*
X421201Y1100787D2*
X1168129D1*
X1252573D2*
X1653383D1*
X1719223D2*
X2119985D1*
X2193686D2*
X3006606D1*
X3171323D2*
X3891225D1*
X421201Y1075919D2*
X1167348D1*
X1233188D2*
X1653383D1*
X1719223D2*
X2119985D1*
X2193686D2*
X3006606D1*
X3171323D2*
X3891225D1*
X421201Y1051050D2*
X1167348D1*
X1233188D2*
X1653383D1*
X1719223D2*
X2119985D1*
X2193686D2*
X3006606D1*
X3171323D2*
X3891225D1*
X421201Y1026181D2*
X1167348D1*
X1233188D2*
X1653383D1*
X1719223D2*
X2119985D1*
X2193686D2*
X2988735D1*
X3171323D2*
X3891225D1*
X421201Y1001312D2*
X1167348D1*
X1233188D2*
X1653383D1*
X1719223D2*
X2119985D1*
X2193686D2*
X2236879D1*
X2263413D2*
X2986196D1*
X3062192D2*
X3091713D1*
X3171323D2*
X3891225D1*
X421201Y976444D2*
X1167348D1*
X1233188D2*
X1653383D1*
X1719223D2*
X2119985D1*
X2193686D2*
X2209878D1*
X2290415D2*
X2986196D1*
X3059897D2*
X3091713D1*
X3171323D2*
X3891225D1*
X421201Y951575D2*
X1167348D1*
X1233188D2*
X1653383D1*
X1719223D2*
X2110122D1*
X2291391D2*
X2986196D1*
X3059897D2*
X3091713D1*
X3171323D2*
X3891225D1*
X421201Y926706D2*
X1167348D1*
X1233188D2*
X1653383D1*
X1719223D2*
X2110122D1*
X2271079D2*
X2561538D1*
X2607065D2*
X2986196D1*
X3059897D2*
X3091713D1*
X3171323D2*
X3891225D1*
X421201Y901837D2*
X912172D1*
X943051D2*
X1021254D1*
X1052085D2*
X1130288D1*
X1270200D2*
X1348403D1*
X1379282D2*
X1457485D1*
X1488315D2*
X1566518D1*
X1597397D2*
X1653628D1*
X2625815D2*
X2986196D1*
X3209604D2*
X3257729D1*
X3318637D2*
X3366811D1*
X3427719D2*
X3475844D1*
X3536753D2*
X3891225D1*
X421201Y876969D2*
X875600D1*
X1633969D2*
X1669546D1*
X2624204D2*
X2986196D1*
X3561655D2*
X3891225D1*
X421201Y852100D2*
X865981D1*
X1643588D2*
X2575698D1*
X2592900D2*
X2986196D1*
X3568491D2*
X3891225D1*
X421201Y827231D2*
X867592D1*
X1641977D2*
X2208657D1*
X2256235D2*
X2308657D1*
X2356235D2*
X2986196D1*
X3564438D2*
X3891225D1*
X421201Y802362D2*
X881753D1*
X973471D2*
X990801D1*
X1082504D2*
X1099868D1*
X1300620D2*
X1317983D1*
X1409702D2*
X1427060D1*
X1518735D2*
X1536098D1*
X1627817D2*
X2180581D1*
X2384311D2*
X2986196D1*
X3218979D2*
X3248354D1*
X3328061D2*
X3357436D1*
X3437094D2*
X3466469D1*
X3546128D2*
X3891225D1*
X421201Y777493D2*
X832241D1*
X913950D2*
X941274D1*
X1023032D2*
X1050307D1*
X1132065D2*
X1159389D1*
X1241147D2*
X1268422D1*
X1350180D2*
X1377504D1*
X1459262D2*
X1486538D1*
X1568296D2*
X2173501D1*
X2391391D2*
X2986196D1*
X3171274D2*
X3187063D1*
X3280307D2*
X3405141D1*
X3543149D2*
X3891225D1*
X421201Y752625D2*
X814614D1*
X1585874D2*
X2178042D1*
X2386850D2*
X2986196D1*
X3293930D2*
X3391567D1*
X3543149D2*
X3891225D1*
X421201Y727756D2*
X810952D1*
X1589536D2*
X2173452D1*
X2366049D2*
X2409975D1*
X2454868D2*
X2986196D1*
X3295200D2*
X3390297D1*
X3543149D2*
X3891225D1*
X421201Y702887D2*
X818227D1*
X1582309D2*
X2173452D1*
X2484018D2*
X2986489D1*
X3542905D2*
X3891225D1*
X421201Y678018D2*
X844301D1*
X901889D2*
X953335D1*
X1010922D2*
X1062417D1*
X1120004D2*
X1171450D1*
X1229038D2*
X1280532D1*
X1338120D2*
X1389565D1*
X1447153D2*
X1498647D1*
X1556235D2*
X2173452D1*
X2491342D2*
X3001235D1*
X3528110D2*
X3891225D1*
X421201Y653150D2*
X2173452D1*
X2487094D2*
X3031020D1*
X3498325D2*
X3891225D1*
X421201Y628281D2*
X2173452D1*
X2366831D2*
X2398012D1*
X2466831D2*
X3891225D1*
X421201Y603412D2*
X3891225D1*
X421201Y578543D2*
X3891225D1*
X421201Y553675D2*
X3891225D1*
X421201Y528806D2*
X3891225D1*
X421201Y503937D2*
X3891225D1*
X421201Y479068D2*
X3891225D1*
X421201Y454199D2*
X3891225D1*
X421201Y429331D2*
X3891225D1*
X2203153Y1503378D2*
X2187637D1*
Y1509286D1*
X2177402Y1509283D1*
X2177432Y1357884D1*
X2182977Y1352240D1*
X2186147Y1347878D1*
X2188595Y1343073D1*
X2190262Y1337944D1*
X2191105Y1332618D1*
X2191211Y1229921D1*
Y972646D1*
X2211132Y972642D1*
X2214263Y980793D1*
X2217565Y986182D1*
X2221669Y990987D1*
X2226475Y995091D1*
X2231863Y998393D1*
X2237701Y1000811D1*
X2243846Y1002286D1*
X2250146Y1002782D1*
X2256446Y1002286D1*
X2262590Y1000811D1*
X2268429Y998393D1*
X2273817Y995091D1*
X2278622Y990987D1*
X2282726Y986182D1*
X2286028Y980793D1*
X2288446Y974955D1*
X2289922Y968810D1*
X2290417Y962510D1*
X2289922Y956211D1*
X2288446Y950066D1*
X2286028Y944228D1*
X2282726Y938839D1*
X2278622Y934034D1*
X2273817Y929930D1*
X2268429Y926628D1*
X2262436Y924166D1*
X2560217Y924182D1*
X2566024Y927788D1*
X2571862Y930206D1*
X2578007Y931681D1*
X2584307Y932177D1*
X2590607Y931681D1*
X2596752Y930206D1*
X2602590Y927788D1*
X2607978Y924486D1*
X2612783Y920382D1*
X2616888Y915577D1*
X2620189Y910188D1*
X2622608Y904350D1*
X2624083Y898205D1*
X2624579Y891906D1*
X2624083Y885606D1*
X2622608Y879461D1*
X2620189Y873623D1*
X2616888Y868234D1*
X2612783Y863429D1*
X2607978Y859325D1*
X2602590Y856023D1*
X2596752Y853605D1*
X2590607Y852130D1*
X2584307Y851634D1*
X2578007Y852130D1*
X2571862Y853605D1*
X2566024Y856023D1*
X2560636Y859325D1*
X2555931Y863337D1*
X1695867Y863418D1*
X1688851Y864813D1*
X1682355Y867808D1*
X1676738Y872237D1*
X1676516Y872476D1*
X1663184Y885923D1*
X1659210Y891870D1*
X1656734Y898581D1*
X1655894Y905685D1*
X1655906Y906011D1*
X1655894Y1307785D1*
X1650510Y1300518D1*
X1643132Y1293140D1*
X1634691Y1287007D1*
X1625394Y1282270D1*
X1615471Y1279046D1*
X1605165Y1277414D1*
X1594732D1*
X1584426Y1279046D1*
X1574503Y1282270D1*
X1565207Y1287007D1*
X1556765Y1293140D1*
X1549388Y1300518D1*
X1543255Y1308959D1*
X1538518Y1318255D1*
X1535294Y1328179D1*
X1533661Y1338484D1*
Y1348918D1*
X1535294Y1359223D1*
X1538518Y1369146D1*
X1543255Y1378443D1*
X1549388Y1386884D1*
X1556765Y1394262D1*
X1565207Y1400395D1*
X1574503Y1405132D1*
X1584426Y1408356D1*
X1594732Y1409988D1*
X1605165D1*
X1615471Y1408356D1*
X1625394Y1405132D1*
X1634691Y1400395D1*
X1643132Y1394262D1*
X1650510Y1386884D1*
X1655906Y1379545D1*
X1655987Y1432306D1*
X1657383Y1439322D1*
X1657522Y1439698D1*
X1657383Y1439322D1*
X1657522Y1439698D1*
X1650850Y1440428D1*
X1581484Y1440522D1*
X1574468Y1441917D1*
X1567972Y1444912D1*
X1562355Y1449340D1*
X1562133Y1449580D1*
X1520683Y1491145D1*
X1516709Y1497092D1*
X1514233Y1503803D1*
X1513392Y1510907D1*
X1513405Y1511233D1*
X1513486Y2213622D1*
X1514882Y2220638D1*
X1517876Y2227134D1*
X1522305Y2232752D1*
X1522545Y2232973D1*
X1530350Y2240796D1*
X1181421Y2240782D1*
X1183356Y2234223D1*
X1184988Y2223918D1*
Y2213484D1*
X1183356Y2203179D1*
X1180132Y2193255D1*
X1175395Y2183959D1*
X1169262Y2175518D1*
X1161884Y2168140D1*
X1153443Y2162007D1*
X1144146Y2157270D1*
X1134223Y2154046D1*
X1123918Y2152414D1*
X1113484D1*
X1103179Y2154046D1*
X1093255Y2157270D1*
X1083959Y2162007D1*
X1075518Y2168140D1*
X1068140Y2175518D1*
X1062007Y2183959D1*
X1057270Y2193255D1*
X1054046Y2203179D1*
X1052414Y2213484D1*
Y2223918D1*
X1054046Y2234223D1*
X1056035Y2240798D1*
X1031421Y2240782D1*
X1033356Y2234223D1*
X1034988Y2223918D1*
Y2213484D1*
X1033356Y2203179D1*
X1030132Y2193255D1*
X1025395Y2183959D1*
X1019262Y2175518D1*
X1011884Y2168140D1*
X1003443Y2162007D1*
X994146Y2157270D1*
X984223Y2154046D1*
X973918Y2152414D1*
X963484D1*
X953179Y2154046D1*
X943255Y2157270D1*
X933959Y2162007D1*
X925518Y2168140D1*
X918140Y2175518D1*
X912007Y2183959D1*
X907270Y2193255D1*
X904046Y2203179D1*
X902414Y2213484D1*
Y2223918D1*
X904046Y2234223D1*
X906035Y2240798D1*
X889331Y2240782D1*
X883356Y2234223D1*
X884988Y2223918D1*
Y2213484D1*
X883356Y2203179D1*
X880132Y2193255D1*
X875395Y2183959D1*
X869262Y2175518D1*
X861884Y2168140D1*
X853443Y2162007D1*
X844146Y2157270D1*
X834223Y2154046D1*
X823918Y2152414D1*
X813484D1*
X803179Y2154046D1*
X793255Y2157270D1*
X783959Y2162007D1*
X775518Y2168140D1*
X768140Y2175518D1*
X762007Y2183959D1*
X757270Y2193255D1*
X754046Y2203179D1*
X752414Y2213484D1*
Y2223918D1*
X754046Y2234223D1*
X757270Y2244146D1*
X762007Y2253443D1*
X768140Y2261884D1*
X775518Y2269262D1*
X783959Y2275395D1*
X793255Y2280132D1*
X803179Y2283356D1*
X813484Y2284988D1*
X823918D1*
X834635Y2283239D1*
X852829Y2301281D1*
X857192Y2304450D1*
X861997Y2306899D1*
X867126Y2308565D1*
X872452Y2309409D1*
X975148Y2309515D1*
X2004103D1*
X2009711Y2312354D1*
X2015721Y2314307D1*
X2021962Y2315296D1*
X2028282D1*
X2034523Y2314307D1*
X2040533Y2312354D1*
X2046132Y2309504D1*
X2435718Y2309514D1*
X2436017Y2310892D1*
X2434758Y2316136D1*
X2434335Y2321512D1*
Y2344608D1*
X2426305Y2351305D1*
X2420195Y2358459D1*
X2418734Y2360646D1*
X2414292Y2354762D1*
X2407640Y2348109D1*
X2400028Y2342579D1*
X2391645Y2338308D1*
X2382697Y2335401D1*
X2373405Y2333929D1*
X2363997D1*
X2354704Y2335401D1*
X2345756Y2338308D1*
X2337374Y2342579D1*
X2329762Y2348109D1*
X2323109Y2354762D1*
X2318734Y2360646D1*
X2314292Y2354762D1*
X2307640Y2348109D1*
X2300028Y2342579D1*
X2291645Y2338308D1*
X2282697Y2335401D1*
X2273405Y2333929D1*
X2263997D1*
X2254704Y2335401D1*
X2245756Y2338308D1*
X2237374Y2342579D1*
X2229762Y2348109D1*
X2223109Y2354762D1*
X2218734Y2360646D1*
X2214292Y2354762D1*
X2207640Y2348109D1*
X2200028Y2342579D1*
X2191645Y2338308D1*
X2182697Y2335401D1*
X2173405Y2333929D1*
X2163997D1*
X2154704Y2335401D1*
X2145756Y2338308D1*
X2137374Y2342579D1*
X2129762Y2348109D1*
X2123109Y2354762D1*
X2117579Y2362374D1*
X2113308Y2370756D1*
X2110401Y2379704D1*
X2108929Y2388997D1*
Y2398405D1*
X2110401Y2407697D1*
X2113308Y2416645D1*
X2117579Y2425028D1*
X2123109Y2432640D1*
X2129762Y2439292D1*
X2135707Y2443709D1*
X1789746Y2443701D1*
X1795272Y2439502D1*
X1801925Y2432850D1*
X1807455Y2425238D1*
X1811726Y2416855D1*
X1814633Y2407907D1*
X1816105Y2398615D1*
Y2389207D1*
X1814633Y2379914D1*
X1811726Y2370966D1*
X1807455Y2362583D1*
X1801925Y2354972D1*
X1795272Y2348319D1*
X1787661Y2342789D1*
X1779278Y2338518D1*
X1770330Y2335611D1*
X1761037Y2334139D1*
X1751629D1*
X1742337Y2335611D1*
X1733389Y2338518D1*
X1725006Y2342789D1*
X1717395Y2348319D1*
X1710742Y2354972D1*
X1705212Y2362583D1*
X1700941Y2370966D1*
X1698033Y2379914D1*
X1696561Y2389207D1*
Y2398615D1*
X1698033Y2407907D1*
X1700941Y2416855D1*
X1705212Y2425238D1*
X1710742Y2432850D1*
X1717395Y2439502D1*
X1723034Y2443714D1*
X418701Y2443701D1*
Y418701D1*
X3893701D1*
Y2443701D1*
X2501757D1*
X2507640Y2439292D1*
X2514292Y2432640D1*
X2519822Y2425028D1*
X2524094Y2416645D1*
X2527001Y2407697D1*
X2528473Y2398405D1*
Y2388997D1*
X2527001Y2379704D1*
X2524094Y2370756D1*
X2519822Y2362374D1*
X2514292Y2354762D1*
X2507640Y2348109D1*
X2503040Y2344592D1*
X2503067Y2342089D1*
X2715329Y2341993D1*
X2720655Y2341149D1*
X2725784Y2339483D1*
X2730589Y2337034D1*
X2734952Y2333865D1*
X2748638Y2320328D1*
X2746310Y2327213D1*
X2745321Y2333454D1*
Y2339774D1*
X2746310Y2346015D1*
X2748262Y2352025D1*
X2751131Y2357656D1*
X2754846Y2362769D1*
X2759314Y2367237D1*
X2764427Y2370951D1*
X2770057Y2373820D1*
X2776067Y2375773D1*
X2782309Y2376762D1*
X2788628D1*
X2794870Y2375773D1*
X2800880Y2373820D1*
X2806510Y2370951D1*
X2811623Y2367237D1*
X2816091Y2362769D1*
X2819806Y2357656D1*
X2822675Y2352025D1*
X2824627Y2346015D1*
X2825616Y2339774D1*
Y2333454D1*
X2824627Y2327213D1*
X2822675Y2321203D1*
X2819806Y2315572D1*
X2815882Y2310233D1*
X2816091Y2162867D1*
X2819806Y2157754D1*
X2822675Y2152124D1*
X2824627Y2146114D1*
X2825616Y2139872D1*
Y2133553D1*
X2824627Y2127311D1*
X2822675Y2121301D1*
X2819806Y2115671D1*
X2816091Y2110558D1*
X2811623Y2106090D1*
X2806510Y2102375D1*
X2800880Y2099506D1*
X2794870Y2097554D1*
X2788628Y2096565D1*
X2782309D1*
X2776067Y2097554D1*
X2768633Y2100163D1*
X2768652Y2054637D1*
X2780949Y2053076D1*
X3261759D1*
X3268140Y2061873D1*
X3275518Y2069250D1*
X3283959Y2075383D1*
X3293255Y2080120D1*
X3303179Y2083344D1*
X3313484Y2084977D1*
X3323918D1*
X3334223Y2083344D1*
X3344146Y2080120D1*
X3353443Y2075383D1*
X3361884Y2069250D1*
X3369262Y2061873D1*
X3375395Y2053432D1*
X3380132Y2044135D1*
X3383356Y2034212D1*
X3384988Y2023906D1*
Y2013473D1*
X3383239Y2002755D1*
X3407977Y1977885D1*
X3411147Y1973522D1*
X3413595Y1968717D1*
X3415262Y1963588D1*
X3416105Y1958262D1*
X3416211Y1890185D1*
X3438281Y1890172D1*
X3438272Y1959617D1*
X3429618Y1964896D1*
X3421684Y1971672D1*
X3414908Y1979606D1*
X3409456Y1988503D1*
X3405463Y1998142D1*
X3403027Y2008288D1*
X3402209Y2018689D1*
X3403027Y2029091D1*
X3405463Y2039237D1*
X3409456Y2048876D1*
X3414908Y2057773D1*
X3421684Y2065707D1*
X3429618Y2072483D1*
X3438514Y2077934D1*
X3448154Y2081927D1*
X3458299Y2084363D1*
X3468701Y2085182D1*
X3479102Y2084363D1*
X3489248Y2081927D1*
X3498888Y2077934D1*
X3507784Y2072483D1*
X3515718Y2065707D1*
X3522494Y2057773D1*
X3527946Y2048876D1*
X3531939Y2039237D1*
X3534374Y2029091D1*
X3535193Y2018689D1*
X3534374Y2008288D1*
X3531939Y1998142D1*
X3527946Y1988503D1*
X3522494Y1979606D1*
X3515718Y1971672D1*
X3507784Y1964896D1*
X3499119Y1959574D1*
X3499036Y1847513D1*
X3497641Y1840497D1*
X3494646Y1834001D1*
X3490217Y1828384D1*
X3484600Y1823955D1*
X3478104Y1820960D1*
X3477718Y1820851D1*
X3478104Y1820960D1*
X3477718Y1820851D1*
X3477235Y1809628D1*
X3337637D1*
Y1890172D1*
X3347451D1*
X3347479Y1941355D1*
X3334653Y1954156D1*
X3323918Y1952402D1*
X3313484D1*
X3303179Y1954035D1*
X3293255Y1957259D1*
X3283959Y1961996D1*
X3275518Y1968128D1*
X3268140Y1975506D1*
X3261778Y1984357D1*
X2753252Y1984450D1*
X2747926Y1985293D1*
X2742797Y1986960D1*
X2737993Y1989408D1*
X2733630Y1992578D1*
X2715386Y2010671D1*
X2715425Y1981883D1*
X3006869Y1981774D1*
X3013885Y1980378D1*
X3020381Y1977383D1*
X3025998Y1972955D1*
X3026220Y1972715D1*
X3516570Y1482250D1*
X3520544Y1476303D1*
X3523020Y1469592D1*
X3523861Y1462488D1*
X3523848Y1462162D1*
X3523861Y1409119D1*
X3532495Y1403790D1*
X3540429Y1397014D1*
X3547205Y1389080D1*
X3552657Y1380184D1*
X3556650Y1370544D1*
X3559086Y1360398D1*
X3559904Y1349997D1*
X3559086Y1339595D1*
X3556650Y1329450D1*
X3552657Y1319810D1*
X3547205Y1310914D1*
X3540429Y1302980D1*
X3532495Y1296203D1*
X3523599Y1290752D1*
X3513959Y1286759D1*
X3503814Y1284323D1*
X3493412Y1283505D1*
X3483010Y1284323D1*
X3472865Y1286759D1*
X3463225Y1290752D1*
X3454329Y1296203D1*
X3446395Y1302980D1*
X3439619Y1310914D1*
X3434167Y1319810D1*
X3430174Y1329450D1*
X3427739Y1339595D1*
X3426920Y1349997D1*
X3427739Y1360398D1*
X3430174Y1370544D1*
X3434167Y1380184D1*
X3439619Y1389080D1*
X3446395Y1397014D1*
X3454329Y1403790D1*
X3463030Y1409132D1*
X3463003Y1449896D1*
X2991890Y1920996D1*
X2908534Y1921009D1*
X2918074Y1910957D1*
X2921570Y1904716D1*
X2923511Y1897831D1*
X2923886Y1893071D1*
X2924079Y1792454D1*
X2927794Y1787341D1*
X2930663Y1781711D1*
X2932616Y1775700D1*
X2933604Y1769459D1*
Y1763140D1*
X2932616Y1756898D1*
X2930663Y1750888D1*
X2927794Y1745257D1*
X2924079Y1740145D1*
X2919611Y1735676D1*
X2914499Y1731962D1*
X2908868Y1729093D1*
X2902858Y1727140D1*
X2896616Y1726152D1*
X2890297D1*
X2884055Y1727140D1*
X2878045Y1729093D1*
X2871460Y1732600D1*
X2871473Y1721073D1*
X3127004Y1720963D1*
X3134020Y1719567D1*
X3140516Y1716572D1*
X3146133Y1712144D1*
X3146355Y1711904D1*
X3161536Y1696609D1*
X3165510Y1690661D1*
X3167986Y1683950D1*
X3168827Y1676846D1*
X3168814Y1676520D1*
X3168827Y907852D1*
X3179146Y908780D1*
X3188494Y908044D1*
X3197612Y905855D1*
X3206276Y902266D1*
X3214272Y897367D1*
X3221402Y891277D1*
X3227492Y884146D1*
X3232392Y876150D1*
X3233643Y873437D1*
X3237247Y880244D1*
X3242759Y887831D1*
X3249390Y894462D1*
X3256976Y899974D1*
X3265332Y904231D1*
X3274250Y907129D1*
X3283512Y908596D1*
X3292889D1*
X3302151Y907129D1*
X3311070Y904231D1*
X3319425Y899974D1*
X3327012Y894462D1*
X3333643Y887831D1*
X3339154Y880244D1*
X3342698Y873437D1*
X3346302Y880244D1*
X3351814Y887831D1*
X3358445Y894462D1*
X3366031Y899974D1*
X3374387Y904231D1*
X3383305Y907129D1*
X3392567Y908596D1*
X3401945D1*
X3411207Y907129D1*
X3420125Y904231D1*
X3428480Y899974D1*
X3436067Y894462D1*
X3442698Y887831D1*
X3448210Y880244D1*
X3451753Y873437D1*
X3455357Y880244D1*
X3460869Y887831D1*
X3467500Y894462D1*
X3475087Y899974D1*
X3483442Y904231D1*
X3492360Y907129D1*
X3501622Y908596D1*
X3511000D1*
X3520262Y907129D1*
X3529180Y904231D1*
X3537535Y899974D1*
X3545122Y894462D1*
X3551753Y887831D1*
X3557265Y880244D1*
X3561522Y871889D1*
X3564420Y862971D1*
X3565887Y853709D1*
Y844331D1*
X3564420Y835069D1*
X3561522Y826151D1*
X3557265Y817796D1*
X3551753Y810209D1*
X3545122Y803578D1*
X3540660Y800154D1*
X3540571Y704596D1*
X3539728Y699270D1*
X3538061Y694141D1*
X3535613Y689336D1*
X3532443Y684974D1*
X3506975Y659505D1*
X3502612Y656336D1*
X3497808Y653888D1*
X3492679Y652221D1*
X3487353Y651377D1*
X3384656Y651272D1*
X3042001Y651377D1*
X3036674Y652221D1*
X3031545Y653888D1*
X3026741Y656336D1*
X3022378Y659505D1*
X2996911Y684972D1*
X2993741Y689335D1*
X2991293Y694140D1*
X2989627Y699269D1*
X2988783Y704595D1*
X2988677Y807291D1*
X2988783Y1015937D1*
X2989627Y1021263D1*
X2991293Y1026392D1*
X2993741Y1031196D1*
X2996911Y1035559D1*
X3009066Y1047864D1*
X3009077Y1293064D1*
X3000229Y1299436D1*
X2992851Y1306814D1*
X2986718Y1315255D1*
X2981981Y1324551D1*
X2978757Y1334474D1*
X2977125Y1344780D1*
Y1355214D1*
X2978896Y1366010D1*
X2835634Y1509278D1*
X2614756Y1509283D1*
X2614735Y1503378D1*
X2475137D1*
Y1512216D1*
X2468450Y1507939D1*
X2462611Y1505521D1*
X2456467Y1504046D1*
X2450167Y1503550D1*
X2445989Y1503795D1*
X2445983Y1503378D1*
X2436169D1*
X2435717Y1495309D1*
X2434459Y1490065D1*
X2432395Y1485083D1*
X2429577Y1480485D1*
X2426075Y1476384D1*
X2421974Y1472882D1*
X2417376Y1470064D1*
X2412394Y1468001D1*
X2407150Y1466742D1*
X2401774Y1466319D1*
X2250802Y1466425D1*
X2245476Y1467268D1*
X2240347Y1468935D1*
X2235542Y1471383D1*
X2231180Y1474553D1*
X2205713Y1500019D1*
X2203826Y1502463D1*
X1601318Y2102672D2*
X1677235D1*
Y2022129D1*
X1663417D1*
X1663456Y1883933D1*
X1847323Y1883879D1*
X1849375Y1883759D1*
X1821797Y1911470D1*
X1817823Y1917418D1*
X1815347Y1924129D1*
X1814507Y1931232D1*
X1814519Y1931559D1*
X1814507Y1964680D1*
X1779074Y1964648D1*
Y2187060D1*
X1677211Y2187091D1*
X1677235Y2147129D1*
X1588818D1*
Y2200888D1*
X1576439Y2200870D1*
X1574251Y2186235D1*
Y1859038D1*
X1579296Y1862605D1*
X1586496Y1866273D1*
X1594180Y1868770D1*
X1602618Y1870052D1*
X1602597Y2022158D1*
X1588818Y2022129D1*
Y2102672D1*
X1601318D1*
X1657534Y1814661D2*
X1656270Y1806680D1*
X1653773Y1798996D1*
X1650105Y1791796D1*
X1645356Y1785259D1*
X1639642Y1779546D1*
X1636628Y1777170D1*
X1636630Y1725976D1*
X1672063Y1726000D1*
Y1633461D1*
X1779106Y1633480D1*
X1779074Y1823103D1*
X1657485Y1823114D1*
X1657534Y1814661D1*
X2710633Y1767414D2*
X2702161Y1767367D1*
X2698350Y1767818D1*
X2687839Y1757306D1*
X2687865Y1732192D1*
X2697708Y1732199D1*
Y1592601D1*
X2617164D1*
Y1606419D1*
X2610461Y1606188D1*
X2605349Y1602474D1*
X2603355Y1601357D1*
X2604786Y1593936D1*
X2604892Y1583965D1*
X2604879Y1590893D1*
X2613818Y1583921D1*
X2614735D1*
Y1578013D1*
X2852560Y1577910D1*
X2857886Y1577066D1*
X2863015Y1575400D1*
X2867820Y1572952D1*
X2872183Y1569782D1*
X2944875Y1497240D1*
X3027890Y1414652D1*
X3038195Y1416284D1*
X3048629D1*
X3058934Y1414652D1*
X3068858Y1411427D1*
X3078154Y1406691D1*
X3086595Y1400558D1*
X3094213Y1392876D1*
X3094189Y1610109D1*
X2752437Y1610213D1*
X2745421Y1611609D1*
X2738925Y1614603D1*
X2733307Y1619032D1*
X2733086Y1619272D1*
X2717905Y1634567D1*
X2713931Y1640515D1*
X2711455Y1647226D1*
X2710614Y1654329D1*
X2710627Y1654656D1*
X2710614Y1767367D1*
X2655318Y1810850D2*
X2654709Y1818701D1*
X2654925Y1823227D1*
X2648034Y1824603D1*
X2641538Y1827598D1*
X2641204Y1827821D1*
X2641538Y1827598D1*
X2638552Y1827247D1*
X2634083Y1822779D1*
X2628971Y1819064D1*
X2623340Y1816195D1*
X2617330Y1814243D1*
X2611089Y1813254D1*
X2604769D1*
X2598528Y1814243D1*
X2592518Y1816195D1*
X2586887Y1819064D1*
X2581775Y1822779D1*
X2577306Y1827247D1*
X2573592Y1832360D1*
X2571421Y1836476D1*
X2571433Y1674996D1*
X2578007Y1676587D1*
X2584307Y1677083D1*
X2590607Y1676587D1*
X2596752Y1675112D1*
X2602590Y1672693D1*
X2607978Y1669391D1*
X2610688Y1667224D1*
X2617164Y1667601D1*
Y1732199D1*
X2626979D1*
X2627100Y1772323D1*
X2628496Y1779339D1*
X2631490Y1785835D1*
X2635919Y1791452D1*
X2636159Y1791674D1*
X2655288Y1810822D1*
X2652677Y1823489D1*
X2645792Y1825430D1*
X2641538Y1827598D1*
X982118Y819076D2*
X978574Y812269D1*
X973062Y804682D1*
X966432Y798052D1*
X958845Y792540D1*
X950490Y788282D1*
X941571Y785385D1*
X932309Y783918D1*
X922932D1*
X913670Y785385D1*
X904752Y788282D1*
X896396Y792540D1*
X888810Y798052D1*
X882179Y804682D1*
X876667Y812269D1*
X872410Y820624D1*
X869512Y829543D1*
X868045Y838805D1*
Y848182D1*
X869512Y857444D1*
X872410Y866362D1*
X876667Y874718D1*
X882179Y882304D1*
X888810Y888935D1*
X896396Y894447D1*
X904752Y898704D1*
X913670Y901602D1*
X922932Y903069D1*
X932309D1*
X941571Y901602D1*
X950490Y898704D1*
X958845Y894447D1*
X966432Y888935D1*
X973062Y882304D1*
X978574Y874718D1*
X982118Y867910D1*
X985722Y874718D1*
X991234Y882304D1*
X997865Y888935D1*
X1005451Y894447D1*
X1013807Y898704D1*
X1022725Y901602D1*
X1031987Y903069D1*
X1041365D1*
X1050627Y901602D1*
X1059545Y898704D1*
X1067900Y894447D1*
X1075487Y888935D1*
X1082118Y882304D1*
X1087629Y874718D1*
X1091173Y867910D1*
X1094777Y874718D1*
X1100289Y882304D1*
X1106920Y888935D1*
X1114507Y894447D1*
X1122862Y898704D1*
X1131780Y901602D1*
X1141042Y903069D1*
X1150420D1*
X1159682Y901602D1*
X1168600Y898704D1*
X1169849Y898129D1*
X1169923Y1096398D1*
X1171319Y1103414D1*
X1174313Y1109910D1*
X1178742Y1115527D1*
X1178982Y1115749D1*
X1386627Y1323412D1*
X1384275Y1333299D1*
X1383456Y1343701D1*
X1384275Y1354102D1*
X1386711Y1364248D1*
X1390704Y1373888D1*
X1396155Y1382784D1*
X1402932Y1390718D1*
X1410865Y1397494D1*
X1419762Y1402946D1*
X1429401Y1406939D1*
X1439547Y1409374D1*
X1449949Y1410193D1*
X1460350Y1409374D1*
X1470496Y1406939D1*
X1480135Y1402946D1*
X1489032Y1397494D1*
X1496966Y1390718D1*
X1503742Y1382784D1*
X1509193Y1373888D1*
X1513186Y1364248D1*
X1515622Y1354102D1*
X1516441Y1343701D1*
X1515622Y1333299D1*
X1513186Y1323154D1*
X1509193Y1313514D1*
X1503742Y1304618D1*
X1496966Y1296684D1*
X1489032Y1289908D1*
X1480135Y1284456D1*
X1470496Y1280463D1*
X1460350Y1278027D1*
X1449949Y1277209D1*
X1439547Y1278027D1*
X1429657Y1280391D1*
X1230642Y1081360D1*
X1230688Y898161D1*
X1240835Y901602D1*
X1250097Y903069D1*
X1259475D1*
X1268737Y901602D1*
X1277655Y898704D1*
X1286011Y894447D1*
X1293597Y888935D1*
X1300228Y882304D1*
X1305740Y874718D1*
X1309283Y867910D1*
X1312888Y874718D1*
X1318399Y882304D1*
X1325030Y888935D1*
X1332617Y894447D1*
X1340972Y898704D1*
X1349891Y901602D1*
X1359153Y903069D1*
X1368530D1*
X1377792Y901602D1*
X1386710Y898704D1*
X1395066Y894447D1*
X1402652Y888935D1*
X1409283Y882304D1*
X1414795Y874718D1*
X1418338Y867910D1*
X1421943Y874718D1*
X1427455Y882304D1*
X1434085Y888935D1*
X1441672Y894447D1*
X1450027Y898704D1*
X1458946Y901602D1*
X1468208Y903069D1*
X1477585D1*
X1486847Y901602D1*
X1495765Y898704D1*
X1504121Y894447D1*
X1511707Y888935D1*
X1518338Y882304D1*
X1523850Y874718D1*
X1527394Y867910D1*
X1530998Y874718D1*
X1536510Y882304D1*
X1543141Y888935D1*
X1550727Y894447D1*
X1559082Y898704D1*
X1568001Y901602D1*
X1577263Y903069D1*
X1586640D1*
X1595902Y901602D1*
X1604821Y898704D1*
X1613176Y894447D1*
X1620762Y888935D1*
X1627393Y882304D1*
X1632905Y874718D1*
X1637162Y866362D1*
X1640060Y857444D1*
X1641527Y848182D1*
Y838805D1*
X1640060Y829543D1*
X1637162Y820624D1*
X1632905Y812269D1*
X1627393Y804682D1*
X1620762Y798052D1*
X1613176Y792540D1*
X1604821Y788282D1*
X1595902Y785385D1*
X1586640Y783918D1*
X1577263D1*
X1568001Y785385D1*
X1559082Y788282D1*
X1550727Y792540D1*
X1543141Y798052D1*
X1536510Y804682D1*
X1530998Y812269D1*
X1527454Y819076D1*
X1523850Y812269D1*
X1518338Y804682D1*
X1511707Y798052D1*
X1504121Y792540D1*
X1495765Y788282D1*
X1486847Y785385D1*
X1477585Y783918D1*
X1468208D1*
X1458946Y785385D1*
X1450027Y788282D1*
X1441672Y792540D1*
X1434085Y798052D1*
X1427455Y804682D1*
X1421943Y812269D1*
X1418399Y819076D1*
X1414795Y812269D1*
X1409283Y804682D1*
X1402652Y798052D1*
X1395066Y792540D1*
X1386710Y788282D1*
X1377792Y785385D1*
X1368530Y783918D1*
X1359153D1*
X1349891Y785385D1*
X1340972Y788282D1*
X1332617Y792540D1*
X1325030Y798052D1*
X1318399Y804682D1*
X1312888Y812269D1*
X1309344Y819076D1*
X1305740Y812269D1*
X1300228Y804682D1*
X1293597Y798052D1*
X1286011Y792540D1*
X1277655Y788282D1*
X1268737Y785385D1*
X1259475Y783918D1*
X1250097D1*
X1240835Y785385D1*
X1231917Y788282D1*
X1230669Y788858D1*
X1231483Y782636D1*
X1239069Y777124D1*
X1245700Y770493D1*
X1251212Y762907D1*
X1254756Y756099D1*
X1258360Y762907D1*
X1263872Y770493D1*
X1270503Y777124D1*
X1278089Y782636D1*
X1286445Y786893D1*
X1295363Y789791D1*
X1304625Y791258D1*
X1314002D1*
X1323264Y789791D1*
X1332183Y786893D1*
X1340538Y782636D1*
X1348125Y777124D1*
X1354755Y770493D1*
X1360267Y762907D1*
X1363811Y756099D1*
X1367415Y762907D1*
X1372927Y770493D1*
X1379558Y777124D1*
X1387144Y782636D1*
X1395500Y786893D1*
X1404418Y789791D1*
X1413680Y791258D1*
X1423057D1*
X1432319Y789791D1*
X1441238Y786893D1*
X1449593Y782636D1*
X1457180Y777124D1*
X1463811Y770493D1*
X1469322Y762907D1*
X1472866Y756099D1*
X1476470Y762907D1*
X1481982Y770493D1*
X1488613Y777124D1*
X1496199Y782636D1*
X1504555Y786893D1*
X1513473Y789791D1*
X1522735Y791258D1*
X1532113D1*
X1541375Y789791D1*
X1550293Y786893D1*
X1558648Y782636D1*
X1566235Y777124D1*
X1572866Y770493D1*
X1578378Y762907D1*
X1582635Y754551D1*
X1585533Y745633D1*
X1587000Y736371D1*
Y726994D1*
X1585533Y717732D1*
X1582635Y708813D1*
X1578378Y700458D1*
X1572866Y692871D1*
X1566235Y686241D1*
X1558648Y680729D1*
X1550293Y676471D1*
X1541375Y673574D1*
X1532113Y672107D1*
X1522735D1*
X1513473Y673574D1*
X1504555Y676471D1*
X1496199Y680729D1*
X1488613Y686241D1*
X1481982Y692871D1*
X1476470Y700458D1*
X1472927Y707265D1*
X1469322Y700458D1*
X1463811Y692871D1*
X1457180Y686241D1*
X1449593Y680729D1*
X1441238Y676471D1*
X1432319Y673574D1*
X1423057Y672107D1*
X1413680D1*
X1404418Y673574D1*
X1395500Y676471D1*
X1387144Y680729D1*
X1379558Y686241D1*
X1372927Y692871D1*
X1367415Y700458D1*
X1363872Y707265D1*
X1360267Y700458D1*
X1354755Y692871D1*
X1348125Y686241D1*
X1340538Y680729D1*
X1332183Y676471D1*
X1323264Y673574D1*
X1314002Y672107D1*
X1304625D1*
X1295363Y673574D1*
X1286445Y676471D1*
X1278089Y680729D1*
X1270503Y686241D1*
X1263872Y692871D1*
X1258360Y700458D1*
X1254816Y707265D1*
X1251212Y700458D1*
X1245700Y692871D1*
X1239069Y686241D1*
X1231483Y680729D1*
X1223128Y676471D1*
X1214209Y673574D1*
X1204947Y672107D1*
X1195570D1*
X1186308Y673574D1*
X1177389Y676471D1*
X1169034Y680729D1*
X1161448Y686241D1*
X1154817Y692871D1*
X1149305Y700458D1*
X1145761Y707265D1*
X1142157Y700458D1*
X1136645Y692871D1*
X1130014Y686241D1*
X1122428Y680729D1*
X1114073Y676471D1*
X1105154Y673574D1*
X1095892Y672107D1*
X1086515D1*
X1077253Y673574D1*
X1068334Y676471D1*
X1059979Y680729D1*
X1052392Y686241D1*
X1045762Y692871D1*
X1040250Y700458D1*
X1036706Y707265D1*
X1033102Y700458D1*
X1027590Y692871D1*
X1020959Y686241D1*
X1013373Y680729D1*
X1005017Y676471D1*
X996099Y673574D1*
X986837Y672107D1*
X977460D1*
X968198Y673574D1*
X959279Y676471D1*
X950924Y680729D1*
X943337Y686241D1*
X936707Y692871D1*
X931195Y700458D1*
X927651Y707265D1*
X924047Y700458D1*
X918535Y692871D1*
X911904Y686241D1*
X904318Y680729D1*
X895962Y676471D1*
X887044Y673574D1*
X877782Y672107D1*
X868404D1*
X859143Y673574D1*
X850224Y676471D1*
X841869Y680729D1*
X834282Y686241D1*
X827651Y692871D1*
X822140Y700458D1*
X817882Y708813D1*
X814985Y717732D1*
X813518Y726994D1*
Y736371D1*
X814985Y745633D1*
X817882Y754551D1*
X822140Y762907D1*
X827651Y770493D1*
X834282Y777124D1*
X841869Y782636D1*
X850224Y786893D1*
X859143Y789791D1*
X868404Y791258D1*
X877782D1*
X887044Y789791D1*
X895962Y786893D1*
X904318Y782636D1*
X911904Y777124D1*
X918535Y770493D1*
X924047Y762907D1*
X927590Y756099D1*
X931195Y762907D1*
X936707Y770493D1*
X943337Y777124D1*
X950924Y782636D1*
X959279Y786893D1*
X968198Y789791D1*
X977460Y791258D1*
X986837D1*
X996099Y789791D1*
X1005017Y786893D1*
X1013373Y782636D1*
X1020959Y777124D1*
X1027590Y770493D1*
X1033102Y762907D1*
X1036646Y756099D1*
X1040250Y762907D1*
X1045762Y770493D1*
X1052392Y777124D1*
X1059979Y782636D1*
X1068334Y786893D1*
X1077253Y789791D1*
X1086515Y791258D1*
X1095892D1*
X1105154Y789791D1*
X1114073Y786893D1*
X1122428Y782636D1*
X1130014Y777124D1*
X1136645Y770493D1*
X1142157Y762907D1*
X1145701Y756099D1*
X1149305Y762907D1*
X1154817Y770493D1*
X1161448Y777124D1*
X1169850Y783093D1*
X1168600Y788282D1*
X1159682Y785385D1*
X1150420Y783918D1*
X1141042D1*
X1131780Y785385D1*
X1122862Y788282D1*
X1114507Y792540D1*
X1106920Y798052D1*
X1100289Y804682D1*
X1094777Y812269D1*
X1091234Y819076D1*
X1087629Y812269D1*
X1082118Y804682D1*
X1075487Y798052D1*
X1067900Y792540D1*
X1059545Y788282D1*
X1050627Y785385D1*
X1041365Y783918D1*
X1031987D1*
X1022725Y785385D1*
X1013807Y788282D1*
X1005451Y792540D1*
X997865Y798052D1*
X991234Y804682D1*
X985722Y812269D1*
X982179Y819076D1*
X884988Y2013484D2*
X883356Y2003179D1*
X880132Y1993255D1*
X875395Y1983959D1*
X869262Y1975518D1*
X861884Y1968140D1*
X853443Y1962007D1*
X844146Y1957270D1*
X834223Y1954046D1*
X823918Y1952414D1*
X813484D1*
X803179Y1954046D1*
X793255Y1957270D1*
X783959Y1962007D1*
X775518Y1968140D1*
X768140Y1975518D1*
X762007Y1983959D1*
X757270Y1993255D1*
X754046Y2003179D1*
X752414Y2013484D1*
Y2023918D1*
X754046Y2034223D1*
X757270Y2044146D1*
X762007Y2053443D1*
X768140Y2061884D1*
X775518Y2069262D1*
X783959Y2075395D1*
X793255Y2080132D1*
X803179Y2083356D1*
X813484Y2084988D1*
X823918D1*
X834223Y2083356D1*
X844146Y2080132D1*
X853443Y2075395D1*
X861884Y2069262D1*
X869262Y2061884D1*
X875395Y2053443D1*
X880132Y2044146D1*
X883356Y2034223D1*
X884988Y2023918D1*
Y2013484D1*
X1034988D2*
X1033356Y2003179D1*
X1030132Y1993255D1*
X1025395Y1983959D1*
X1019262Y1975518D1*
X1011884Y1968140D1*
X1003443Y1962007D1*
X994146Y1957270D1*
X984223Y1954046D1*
X973918Y1952414D1*
X963484D1*
X953179Y1954046D1*
X943255Y1957270D1*
X933959Y1962007D1*
X925518Y1968140D1*
X918140Y1975518D1*
X912007Y1983959D1*
X907270Y1993255D1*
X904046Y2003179D1*
X902414Y2013484D1*
Y2023918D1*
X904046Y2034223D1*
X907270Y2044146D1*
X912007Y2053443D1*
X918140Y2061884D1*
X925518Y2069262D1*
X933959Y2075395D1*
X943255Y2080132D1*
X953179Y2083356D1*
X963484Y2084988D1*
X973918D1*
X984223Y2083356D1*
X994146Y2080132D1*
X1003443Y2075395D1*
X1011884Y2069262D1*
X1019262Y2061884D1*
X1025395Y2053443D1*
X1030132Y2044146D1*
X1033356Y2034223D1*
X1034988Y2023918D1*
Y2013484D1*
X1184988D2*
X1183356Y2003179D1*
X1180132Y1993255D1*
X1175395Y1983959D1*
X1169262Y1975518D1*
X1161884Y1968140D1*
X1153443Y1962007D1*
X1144146Y1957270D1*
X1134223Y1954046D1*
X1123918Y1952414D1*
X1113484D1*
X1103179Y1954046D1*
X1093255Y1957270D1*
X1083959Y1962007D1*
X1075518Y1968140D1*
X1068140Y1975518D1*
X1062007Y1983959D1*
X1057270Y1993255D1*
X1054046Y2003179D1*
X1052414Y2013484D1*
Y2023918D1*
X1054046Y2034223D1*
X1057270Y2044146D1*
X1062007Y2053443D1*
X1068140Y2061884D1*
X1075518Y2069262D1*
X1083959Y2075395D1*
X1093255Y2080132D1*
X1103179Y2083356D1*
X1113484Y2084988D1*
X1123918D1*
X1134223Y2083356D1*
X1144146Y2080132D1*
X1153443Y2075395D1*
X1161884Y2069262D1*
X1169262Y2061884D1*
X1175395Y2053443D1*
X1180132Y2044146D1*
X1183356Y2034223D1*
X1184988Y2023918D1*
Y2013484D1*
X3057352Y908780D2*
X3094169D1*
X3093973Y1306814D1*
X3086595Y1299436D1*
X3077781Y1293094D1*
X3077704Y1030944D1*
X3076860Y1025618D1*
X3075194Y1020489D1*
X3072746Y1015684D1*
X3069576Y1011321D1*
X3057421Y999016D1*
X3057410Y908797D1*
X3233643Y824603D2*
X3230099Y817796D1*
X3224587Y810209D1*
X3217957Y803578D1*
X3210370Y798066D1*
X3202015Y793809D1*
X3193096Y790911D1*
X3183834Y789444D1*
X3174457D1*
X3165195Y790911D1*
X3156277Y793809D1*
X3155028Y794385D1*
X3155047Y788633D1*
X3163429Y782651D1*
X3170060Y776020D1*
X3175572Y768433D1*
X3179115Y761626D1*
X3182720Y768433D1*
X3188231Y776020D1*
X3194862Y782651D1*
X3202449Y788163D1*
X3210804Y792420D1*
X3219723Y795318D1*
X3228985Y796785D1*
X3238362D1*
X3247624Y795318D1*
X3256542Y792420D1*
X3264898Y788163D1*
X3272484Y782651D1*
X3279115Y776020D1*
X3284627Y768433D1*
X3288884Y760078D1*
X3291782Y751160D1*
X3293249Y741898D1*
Y732520D1*
X3291782Y723258D1*
X3290861Y719995D1*
X3394550Y720004D1*
X3392759Y727861D1*
X3392024Y737209D1*
X3392759Y746558D1*
X3394948Y755676D1*
X3398537Y764339D1*
X3403437Y772335D1*
X3409527Y779466D1*
X3416658Y785556D1*
X3424653Y790455D1*
X3433317Y794044D1*
X3442435Y796233D1*
X3451783Y796969D1*
X3461132Y796233D1*
X3470250Y794044D1*
X3471953Y793416D1*
X3471945Y800115D1*
X3464054Y806763D1*
X3457964Y813894D1*
X3453065Y821890D1*
X3451814Y824603D1*
X3448210Y817796D1*
X3442698Y810209D1*
X3436067Y803578D1*
X3428480Y798066D1*
X3420125Y793809D1*
X3411207Y790911D1*
X3401945Y789444D1*
X3392567D1*
X3383305Y790911D1*
X3374387Y793809D1*
X3366031Y798066D1*
X3358445Y803578D1*
X3351814Y810209D1*
X3346302Y817796D1*
X3342759Y824603D1*
X3339154Y817796D1*
X3333643Y810209D1*
X3327012Y803578D1*
X3319425Y798066D1*
X3311070Y793809D1*
X3302151Y790911D1*
X3292889Y789444D1*
X3283512D1*
X3274250Y790911D1*
X3265332Y793809D1*
X3256976Y798066D1*
X3249390Y803578D1*
X3242759Y810209D1*
X3237247Y817796D1*
X3233704Y824603D1*
X916236Y1338484D2*
X914604Y1328179D1*
X911379Y1318255D1*
X906642Y1308959D1*
X900510Y1300518D1*
X893132Y1293140D1*
X884691Y1287007D1*
X875394Y1282270D1*
X865471Y1279046D1*
X855165Y1277414D1*
X844732D1*
X834426Y1279046D1*
X824503Y1282270D1*
X815207Y1287007D1*
X806765Y1293140D1*
X799388Y1300518D1*
X793255Y1308959D1*
X788518Y1318255D1*
X785294Y1328179D1*
X783661Y1338484D1*
Y1348918D1*
X785294Y1359223D1*
X788518Y1369146D1*
X793255Y1378443D1*
X799388Y1386884D1*
X806765Y1394262D1*
X815207Y1400395D1*
X824503Y1405132D1*
X834426Y1408356D1*
X844732Y1409988D1*
X855165D1*
X865471Y1408356D1*
X875394Y1405132D1*
X884691Y1400395D1*
X893132Y1394262D1*
X900510Y1386884D1*
X906642Y1378443D1*
X911379Y1369146D1*
X914604Y1359223D1*
X916236Y1348918D1*
Y1338484D1*
X1066236D2*
X1064604Y1328179D1*
X1061379Y1318255D1*
X1056642Y1308959D1*
X1050510Y1300518D1*
X1043132Y1293140D1*
X1034691Y1287007D1*
X1025394Y1282270D1*
X1015471Y1279046D1*
X1005165Y1277414D1*
X994732D1*
X984426Y1279046D1*
X974503Y1282270D1*
X965207Y1287007D1*
X956765Y1293140D1*
X949388Y1300518D1*
X943255Y1308959D1*
X938518Y1318255D1*
X935294Y1328179D1*
X933661Y1338484D1*
Y1348918D1*
X935294Y1359223D1*
X938518Y1369146D1*
X943255Y1378443D1*
X949388Y1386884D1*
X956765Y1394262D1*
X965207Y1400395D1*
X974503Y1405132D1*
X984426Y1408356D1*
X994732Y1409988D1*
X1005165D1*
X1015471Y1408356D1*
X1025394Y1405132D1*
X1034691Y1400395D1*
X1043132Y1394262D1*
X1050510Y1386884D1*
X1056642Y1378443D1*
X1061379Y1369146D1*
X1064604Y1359223D1*
X1066236Y1348918D1*
Y1338484D1*
X1366236D2*
X1364604Y1328179D1*
X1361379Y1318255D1*
X1356642Y1308959D1*
X1350510Y1300518D1*
X1343132Y1293140D1*
X1334691Y1287007D1*
X1325394Y1282270D1*
X1315471Y1279046D1*
X1305165Y1277414D1*
X1294732D1*
X1284426Y1279046D1*
X1274503Y1282270D1*
X1265207Y1287007D1*
X1256765Y1293140D1*
X1249388Y1300518D1*
X1243255Y1308959D1*
X1238518Y1318255D1*
X1235294Y1328179D1*
X1233661Y1338484D1*
Y1348918D1*
X1235294Y1359223D1*
X1238518Y1369146D1*
X1243255Y1378443D1*
X1249388Y1386884D1*
X1256765Y1394262D1*
X1265207Y1400395D1*
X1274503Y1405132D1*
X1284426Y1408356D1*
X1294732Y1409988D1*
X1305165D1*
X1315471Y1408356D1*
X1325394Y1405132D1*
X1334691Y1400395D1*
X1343132Y1394262D1*
X1350510Y1386884D1*
X1356642Y1378443D1*
X1361379Y1369146D1*
X1364604Y1359223D1*
X1366236Y1348918D1*
Y1338484D1*
X1806852Y1309332D2*
X1800510Y1300518D1*
X1793132Y1293140D1*
X1784691Y1287007D1*
X1775394Y1282270D1*
X1765471Y1279046D1*
X1755165Y1277414D1*
X1744732D1*
X1734426Y1279046D1*
X1724503Y1282270D1*
X1716755Y1286140D1*
X1716752Y924206D1*
X2112659Y924182D1*
X2112637Y972642D1*
X2122451D1*
X2122479Y1309372D1*
X1806884Y1309335D1*
X1716755Y1401262D2*
X1724503Y1405132D1*
X1734426Y1408356D1*
X1744732Y1409988D1*
X1755165D1*
X1765471Y1408356D1*
X1775394Y1405132D1*
X1784691Y1400395D1*
X1793132Y1394262D1*
X1800510Y1386884D1*
X1806852Y1378069D1*
X2108689Y1378067D1*
X2108699Y1513867D1*
X2015283Y1420560D1*
X2009336Y1416586D1*
X2002625Y1414110D1*
X1995521Y1413269D1*
X1995195Y1413282D1*
X1716761Y1413269D1*
X1716752Y1401354D1*
X2509699Y1344780D2*
X2508067Y1334474D1*
X2504843Y1324551D1*
X2500106Y1315255D1*
X2493973Y1306814D1*
X2486595Y1299436D1*
X2478154Y1293303D1*
X2468858Y1288566D1*
X2458934Y1285342D1*
X2448629Y1283710D1*
X2438195D1*
X2427890Y1285342D1*
X2417967Y1288566D1*
X2408670Y1293303D1*
X2400229Y1299436D1*
X2392851Y1306814D1*
X2386718Y1315255D1*
X2381981Y1324551D1*
X2378757Y1334474D1*
X2377125Y1344780D1*
Y1355214D1*
X2378757Y1365519D1*
X2381981Y1375442D1*
X2386718Y1384739D1*
X2392851Y1393180D1*
X2400229Y1400558D1*
X2408670Y1406691D1*
X2417967Y1411427D1*
X2427890Y1414652D1*
X2438195Y1416284D1*
X2448629D1*
X2458934Y1414652D1*
X2468858Y1411427D1*
X2478154Y1406691D1*
X2486595Y1400558D1*
X2493973Y1393180D1*
X2500106Y1384739D1*
X2504843Y1375442D1*
X2508067Y1365519D1*
X2509699Y1355214D1*
Y1344780D1*
X2809699D2*
X2808067Y1334474D1*
X2804843Y1324551D1*
X2800106Y1315255D1*
X2793973Y1306814D1*
X2786595Y1299436D1*
X2778154Y1293303D1*
X2768858Y1288566D1*
X2758934Y1285342D1*
X2748629Y1283710D1*
X2738195D1*
X2727890Y1285342D1*
X2717967Y1288566D1*
X2708670Y1293303D1*
X2700229Y1299436D1*
X2692851Y1306814D1*
X2686718Y1315255D1*
X2681981Y1324551D1*
X2678757Y1334474D1*
X2677125Y1344780D1*
Y1355214D1*
X2678757Y1365519D1*
X2681981Y1375442D1*
X2686718Y1384739D1*
X2692851Y1393180D1*
X2700229Y1400558D1*
X2708670Y1406691D1*
X2717967Y1411427D1*
X2727890Y1414652D1*
X2738195Y1416284D1*
X2748629D1*
X2758934Y1414652D1*
X2768858Y1411427D1*
X2778154Y1406691D1*
X2786595Y1400558D1*
X2793973Y1393180D1*
X2800106Y1384739D1*
X2804843Y1375442D1*
X2808067Y1365519D1*
X2809699Y1355214D1*
Y1344780D1*
X3409699D2*
X3408067Y1334474D1*
X3404843Y1324551D1*
X3400106Y1315255D1*
X3393973Y1306814D1*
X3386595Y1299436D1*
X3378154Y1293303D1*
X3368858Y1288566D1*
X3358934Y1285342D1*
X3348629Y1283710D1*
X3338195D1*
X3327890Y1285342D1*
X3317967Y1288566D1*
X3308670Y1293303D1*
X3300229Y1299436D1*
X3292851Y1306814D1*
X3286718Y1315255D1*
X3281981Y1324551D1*
X3278757Y1334474D1*
X3277125Y1344780D1*
X3277091Y1354337D1*
X3269003Y1353534D1*
X3262703Y1354030D1*
X3256558Y1355505D1*
X3250720Y1357923D1*
X3245332Y1361225D1*
X3240526Y1365329D1*
X3236422Y1370135D1*
X3233120Y1375523D1*
X3230702Y1381361D1*
X3229227Y1387506D1*
X3228731Y1393806D1*
X3229227Y1400106D1*
X3230702Y1406250D1*
X3233120Y1412089D1*
X3236422Y1417477D1*
X3240526Y1422282D1*
X3245332Y1426386D1*
X3250720Y1429688D1*
X3256558Y1432106D1*
X3262703Y1433582D1*
X3269003Y1434077D1*
X3275302Y1433582D1*
X3281447Y1432106D1*
X3287286Y1429688D1*
X3292674Y1426386D1*
X3297479Y1422282D1*
X3301583Y1417477D1*
X3304885Y1412089D1*
X3307400Y1405906D1*
X3317967Y1411427D1*
X3327890Y1414652D1*
X3338195Y1416284D1*
X3348629D1*
X3358934Y1414652D1*
X3368858Y1411427D1*
X3378154Y1406691D1*
X3386595Y1400558D1*
X3393973Y1393180D1*
X3400106Y1384739D1*
X3404843Y1375442D1*
X3408067Y1365519D1*
X3409699Y1355214D1*
Y1344780D1*
X2959699D2*
X2958067Y1334474D1*
X2954843Y1324551D1*
X2950106Y1315255D1*
X2943973Y1306814D1*
X2936595Y1299436D1*
X2928154Y1293303D1*
X2918858Y1288566D1*
X2908934Y1285342D1*
X2898629Y1283710D1*
X2888195D1*
X2877890Y1285342D1*
X2867967Y1288566D1*
X2858670Y1293303D1*
X2850229Y1299436D1*
X2842851Y1306814D1*
X2836718Y1315255D1*
X2831981Y1324551D1*
X2828757Y1334474D1*
X2827125Y1344780D1*
Y1355214D1*
X2828757Y1365519D1*
X2831981Y1375442D1*
X2836718Y1384739D1*
X2842851Y1393180D1*
X2850229Y1400558D1*
X2858670Y1406691D1*
X2867967Y1411427D1*
X2877890Y1414652D1*
X2888195Y1416284D1*
X2898629D1*
X2908934Y1414652D1*
X2918858Y1411427D1*
X2928154Y1406691D1*
X2936595Y1400558D1*
X2943973Y1393180D1*
X2950106Y1384739D1*
X2954843Y1375442D1*
X2958067Y1365519D1*
X2959699Y1355214D1*
Y1344780D1*
X3709699D2*
X3708067Y1334474D1*
X3704843Y1324551D1*
X3700106Y1315255D1*
X3693973Y1306814D1*
X3686595Y1299436D1*
X3678154Y1293303D1*
X3668858Y1288566D1*
X3658934Y1285342D1*
X3648629Y1283710D1*
X3638195D1*
X3627890Y1285342D1*
X3617967Y1288566D1*
X3608670Y1293303D1*
X3600229Y1299436D1*
X3592851Y1306814D1*
X3586718Y1315255D1*
X3581981Y1324551D1*
X3578757Y1334474D1*
X3577125Y1344780D1*
Y1355214D1*
X3578757Y1365519D1*
X3581981Y1375442D1*
X3586718Y1384739D1*
X3592851Y1393180D1*
X3600229Y1400558D1*
X3608670Y1406691D1*
X3617967Y1411427D1*
X3627890Y1414652D1*
X3638195Y1416284D1*
X3648629D1*
X3658934Y1414652D1*
X3668858Y1411427D1*
X3678154Y1406691D1*
X3686595Y1400558D1*
X3693973Y1393180D1*
X3700106Y1384739D1*
X3704843Y1375442D1*
X3708067Y1365519D1*
X3709699Y1355214D1*
Y1344780D1*
X2488754Y670468D2*
X2487367Y661712D1*
X2484628Y653282D1*
X2480603Y645383D1*
X2475393Y638212D1*
X2469124Y631943D1*
X2461953Y626733D1*
X2454054Y622708D1*
X2445624Y619969D1*
X2436868Y618582D1*
X2428003D1*
X2419248Y619969D1*
X2410817Y622708D1*
X2402919Y626733D1*
X2395747Y631943D1*
X2389479Y638212D1*
X2384268Y645383D1*
X2382448Y648634D1*
X2378139Y641695D1*
X2372382Y634954D1*
X2365641Y629197D1*
X2358083Y624565D1*
X2349893Y621173D1*
X2341273Y619104D1*
X2332436Y618408D1*
X2323598Y619104D1*
X2314979Y621173D1*
X2306789Y624565D1*
X2299230Y629197D1*
X2292490Y634954D1*
X2288932Y638906D1*
X2288928Y618408D1*
X2175944D1*
Y731392D1*
X2196403D1*
X2189479Y738212D1*
X2184268Y745383D1*
X2180244Y753282D1*
X2177504Y761712D1*
X2176118Y770468D1*
Y779333D1*
X2177504Y788088D1*
X2180244Y796519D1*
X2184268Y804417D1*
X2189479Y811589D1*
X2195747Y817857D1*
X2202919Y823068D1*
X2210817Y827092D1*
X2219248Y829832D1*
X2228003Y831218D1*
X2236868D1*
X2245624Y829832D1*
X2254054Y827092D1*
X2261953Y823068D1*
X2269124Y817857D1*
X2275393Y811589D1*
X2280603Y804417D1*
X2282423Y801167D1*
X2286733Y808106D1*
X2292490Y814846D1*
X2299230Y820603D1*
X2306789Y825235D1*
X2314979Y828627D1*
X2323598Y830697D1*
X2332436Y831392D1*
X2341273Y830697D1*
X2349893Y828627D1*
X2358083Y825235D1*
X2365641Y820603D1*
X2372382Y814846D1*
X2378139Y808106D1*
X2382771Y800547D1*
X2386163Y792357D1*
X2388232Y783738D1*
X2388928Y774900D1*
X2388232Y766063D1*
X2386163Y757443D1*
X2382771Y749253D1*
X2378139Y741695D1*
X2372382Y734954D1*
X2365641Y729197D1*
X2358702Y724913D1*
X2365641Y720603D1*
X2372382Y714846D1*
X2378139Y708106D1*
X2382423Y701167D1*
X2386733Y708106D1*
X2392490Y714846D1*
X2399230Y720603D1*
X2406789Y725235D1*
X2414979Y728627D1*
X2423598Y730697D1*
X2432436Y731392D1*
X2441273Y730697D1*
X2449893Y728627D1*
X2458083Y725235D1*
X2465641Y720603D1*
X2472382Y714846D1*
X2478139Y708106D1*
X2482771Y700547D1*
X2486163Y692357D1*
X2488232Y683738D1*
X2488928Y674900D1*
X2488754Y670468D1*
X1591542Y1637582D2*
X1591520Y1655112D1*
X1586439Y1658653D1*
X1581583Y1663906D1*
X1578088Y1670147D1*
X1576146Y1677031D1*
X1575772Y1681791D1*
Y1777153D1*
X1574251Y1773735D1*
Y1523491D1*
X1596516Y1501246D1*
X1961948Y1501286D1*
X1967309Y1505194D1*
X1972939Y1508063D1*
X1978949Y1510016D1*
X1985191Y1511004D1*
X1991510D1*
X1997752Y1510016D1*
X2003762Y1508063D1*
X2009392Y1505194D1*
X2012148Y1503338D1*
X2081417Y1572627D1*
X1629404Y1572716D1*
X1622388Y1574111D1*
X1615892Y1577106D1*
X1610275Y1581534D1*
X1606951Y1585499D1*
X1597063Y1586401D1*
X1591520D1*
Y1655200D1*
X1586439Y1658653D1*
X1581583Y1663906D1*
X1578088Y1670147D1*
X1576146Y1677031D1*
X1575784Y1682118D1*
X1971145Y1901558D2*
X1971101Y1907466D1*
X1969438Y1907271D1*
X1964325Y1903556D1*
X1958695Y1900688D1*
X1952685Y1898735D1*
X1946443Y1897746D1*
X1940124D1*
X1933882Y1898735D1*
X1927872Y1900688D1*
X1922242Y1903556D1*
X1917129Y1907271D1*
X1912661Y1911739D1*
X1908946Y1916852D1*
X1906077Y1922482D1*
X1904125Y1928492D1*
X1903136Y1934734D1*
Y1941053D1*
X1904125Y1947295D1*
X1906077Y1953305D1*
X1907396Y1956165D1*
X1898915Y1964640D1*
X1875398Y1964648D1*
X1875365Y1943793D1*
X1945415Y1873786D1*
X1971094Y1873833D1*
X1971101Y1907513D1*
X1971145Y1712581D2*
X1971101Y1718489D1*
X1936397Y1718295D1*
X1931285Y1714580D1*
X1925654Y1711711D1*
X1919644Y1709758D1*
X1913402Y1708770D1*
X1910798Y1708667D1*
Y1633443D1*
X2063578Y1633480D1*
X2063621Y1681095D1*
X1971101Y1681085D1*
Y1718536D1*
X2543726Y1879739D2*
X2543770Y1877053D1*
X2550218Y1875155D1*
X2555023Y1872706D1*
X2559386Y1869537D1*
X2563199Y1865723D1*
X2566369Y1861361D1*
X2567851Y1858652D1*
X2569629Y1865846D1*
X2572047Y1871685D1*
X2575349Y1877073D1*
X2577516Y1879783D1*
X2577500Y1921419D1*
X2570926Y1919767D1*
X2564626Y1919272D1*
X2558326Y1919767D1*
X2552181Y1921243D1*
X2546343Y1923661D1*
X2543767Y1925103D1*
X2543770Y1877093D1*
X2550218Y1875155D1*
X2555023Y1872706D1*
X2559386Y1869537D1*
X2563199Y1865723D1*
X2566369Y1861361D1*
X2567688Y1859006D1*
X2419920Y1877792D2*
Y1884466D1*
X2414280Y1885814D1*
X2408441Y1888232D1*
X2403053Y1891534D1*
X2400343Y1893701D1*
X2338421Y1893685D1*
X2354352Y1877770D1*
X2419951D1*
X2451251Y2104350D2*
Y2082475D1*
X2501448Y2082496D1*
X2497031Y2086936D1*
X2493316Y2092049D1*
X2490447Y2097679D1*
X2488367Y2104331D1*
X2451238Y2104315D1*
X2095117Y2161190D2*
X2101025Y2161235D1*
X2101397Y2167465D1*
X2103338Y2174349D1*
X2106834Y2180591D1*
X2109935Y2184221D1*
X2161626Y2235780D1*
X2167574Y2239754D1*
X2169858Y2240797D1*
X2046137Y2240782D1*
X2040533Y2237942D1*
X2034523Y2235989D1*
X2028282Y2235001D1*
X2021962D1*
X2015721Y2235989D1*
X2009711Y2237942D1*
X2004112Y2240793D1*
X1937280Y2240782D1*
X1942132Y2235404D1*
X1945627Y2229163D1*
X1947569Y2222279D1*
X1947944Y2217518D1*
Y2005751D1*
X1954764Y2006790D1*
X1954777Y2007116D1*
X1954858Y2064297D1*
X1956253Y2071313D1*
X1959248Y2077809D1*
X1963676Y2083426D1*
X1963916Y2083648D1*
X1979210Y2098827D1*
X1985158Y2102802D1*
X1991869Y2105277D1*
X1998972Y2106118D1*
X1999299Y2106105D1*
X2038020Y2106312D1*
X2043133Y2110026D1*
X2048763Y2112895D1*
X2054773Y2114848D1*
X2061015Y2115836D1*
X2063619Y2115939D1*
X2063621Y2161235D1*
X2101072D1*
X2101397Y2167465D1*
X2103338Y2174349D1*
X2106834Y2180591D1*
X2109935Y2184221D1*
X2666284Y2259247D2*
X2667285Y2265798D1*
X2669967Y2273389D1*
X2496666Y2273366D1*
X2472215Y2249016D1*
X2467853Y2245846D1*
X2462682Y2243263D1*
X2518888Y2243071D1*
X2650090D1*
X2666273Y2259259D1*
X2299151Y1541943D2*
X2295810Y1545795D1*
X2292315Y1552036D1*
X2290373Y1558921D1*
X2290092Y1561294D1*
X2276054Y1569126D1*
Y1535044D1*
X2306087Y1535051D1*
X2297289Y1543919D1*
X2293315Y1549867D1*
X2290839Y1556578D1*
X2289999Y1563681D1*
X2290011Y1564008D1*
X2289999Y1588144D1*
X2286738Y1581160D1*
X2283568Y1576798D1*
X2276039Y1569119D1*
X2290092Y1561294D1*
X2289999Y1563681D1*
X2831444Y1670973D2*
X2817905Y1684645D1*
X2813931Y1690592D1*
X2811455Y1697303D1*
X2810614Y1704407D1*
X2810627Y1704733D1*
X2810614Y1836878D1*
X2771453Y1836894D1*
X2771473Y1670965D1*
X2831435Y1670978D1*
X2817905Y1684645D1*
X2813931Y1690592D1*
X2811455Y1697303D1*
X2810614Y1704407D1*
D16*
X2734286Y2187400D3*
D17*
X2834286D3*
D18*
X2231845Y1543650D3*
X2283026D3*
X1633026Y2062400D3*
X1581845D3*
X1633026Y2187400D3*
X1581845D3*
D19*
X1606201Y1818701D3*
D20*
X1506201D3*
D19*
X2706201D3*
D20*
X2806201D3*
D21*
X2068701Y2393701D3*
D22*
X2168701D3*
X2268701D3*
X2368701D3*
X2468701D3*
D23*
X818566Y843493D3*
D24*
X927621D3*
X1036676D3*
X1145731D3*
X1254786D3*
X1363841D3*
X1472896D3*
X1581951D3*
X873093Y731682D3*
X982148D3*
X1091203D3*
X1200259D3*
X1309314D3*
X1418369D3*
X1527424D3*
D25*
X544353Y787588D3*
X1856164D3*
D26*
X668701Y2018701D3*
X818701D3*
X968701D3*
X1118701D3*
Y2218701D3*
X968701D3*
X818701D3*
D23*
X3070091Y849020D3*
D24*
X3179146D3*
X3288201D3*
X3397256D3*
X3506311D3*
X3124618Y737209D3*
X3233673D3*
X3342728D3*
X3451783D3*
D27*
X3780130Y793115D3*
X2796272D3*
D26*
X699949Y1343701D3*
X849949D3*
X999949D3*
X1299949D3*
X1449949D3*
X1599949D3*
X1749949D3*
X3318701Y2018689D3*
X3468701D3*
X3618701D3*
X2443412Y1349997D3*
X2743412D3*
X3043412D3*
X3193412D3*
X3343412D3*
X3493412D3*
X2893412D3*
X3643412D3*
D28*
X2432436Y674900D3*
Y774900D3*
X2332436Y674900D3*
Y774900D3*
X2232436D3*
D29*
Y674900D3*
D21*
X1656333Y2393911D3*
D22*
X1756333D3*
D18*
X2401774Y1543650D3*
X2350593D3*
X2570526D3*
X2519345D3*
X2156845Y932370D3*
X2208026D3*
X3381845Y1849900D3*
X3433026D3*
D30*
X1631791Y1681791D3*
Y1630610D3*
X2657436Y1687991D3*
Y1636810D3*
D32*
X2033026Y2032381D3*
Y2000885D3*
Y1969388D3*
Y1937892D3*
Y1906396D3*
Y1874900D3*
Y1843404D3*
Y1811908D3*
Y1780412D3*
Y1748916D3*
Y1717420D3*
D33*
X2099955Y1650491D3*
X2131451D3*
X2162948D3*
X2194444D3*
X2225940D3*
X2257436D3*
X2288932D3*
X2320428D3*
X2351924D3*
X2383420D3*
X2414916D3*
D32*
X2481845Y1717420D3*
Y1748916D3*
Y1780412D3*
Y1811908D3*
Y1843404D3*
Y1874900D3*
Y1906396D3*
Y1937892D3*
Y1969388D3*
Y2000885D3*
Y2032381D3*
D33*
X2414916Y2099310D3*
X2383420D3*
X2351924D3*
X2320428D3*
X2288932D3*
X2257436D3*
X2225940D3*
X2194444D3*
X2162948D3*
X2131451D3*
X2099955D3*
D35*
X1844936Y1725392D3*
Y2099408D3*
M02*
