G04 DipTrace 3.1.0.0*
G04 TopMask.gbr*
%MOIN*%
G04 #@! TF.FileFunction,Soldermask,Top*
G04 #@! TF.Part,Single*
%ADD46R,0.086614X0.224409*%
%ADD48R,0.027559X0.07874*%
%ADD50R,0.07874X0.027559*%
%ADD52R,0.035433X0.043307*%
%ADD54R,0.067874X0.067874*%
%ADD56C,0.067874*%
%ADD58C,0.195276*%
%ADD60C,0.087874*%
%ADD62C,0.19685*%
%ADD64C,0.074409*%
%ADD66R,0.074409X0.074409*%
%ADD68C,0.074803*%
%ADD70R,0.074803X0.074803*%
%ADD72R,0.057874X0.057874*%
%ADD74C,0.057874*%
%ADD76R,0.043307X0.035433*%
%ADD78C,0.070866*%
%ADD80R,0.070866X0.070866*%
%FSLAX26Y26*%
G04*
G70*
G90*
G75*
G01*
G04 TopMask*
%LPD*%
D80*
X2734286Y2187400D3*
D78*
X2834286D3*
D76*
X2231845Y1543650D3*
X2283026D3*
X1633026Y2062400D3*
X1581845D3*
X1633026Y2187400D3*
X1581845D3*
D74*
X1606201Y1818701D3*
D72*
X1506201D3*
D74*
X2706201D3*
D72*
X2806201D3*
D70*
X2068701Y2393701D3*
D68*
X2168701D3*
X2268701D3*
X2368701D3*
X2468701D3*
D66*
X818566Y843493D3*
D64*
X927621D3*
X1036676D3*
X1145731D3*
X1254786D3*
X1363841D3*
X1472896D3*
X1581951D3*
X873093Y731682D3*
X982148D3*
X1091203D3*
X1200259D3*
X1309314D3*
X1418369D3*
X1527424D3*
D62*
X544353Y787588D3*
X1856164D3*
D60*
X668701Y2018701D3*
X818701D3*
X968701D3*
X1118701D3*
Y2218701D3*
X968701D3*
X818701D3*
D66*
X3070091Y849020D3*
D64*
X3179146D3*
X3288201D3*
X3397256D3*
X3506311D3*
X3124618Y737209D3*
X3233673D3*
X3342728D3*
X3451783D3*
D58*
X3780130Y793115D3*
X2796272D3*
D60*
X699949Y1343701D3*
X849949D3*
X999949D3*
X1299949D3*
X1449949D3*
X1599949D3*
X1749949D3*
X3318701Y2018689D3*
X3468701D3*
X3618701D3*
X2443412Y1349997D3*
X2743412D3*
X3043412D3*
X3193412D3*
X3343412D3*
X3493412D3*
X2893412D3*
X3643412D3*
D56*
X2432436Y674900D3*
Y774900D3*
X2332436Y674900D3*
Y774900D3*
X2232436D3*
D54*
Y674900D3*
D70*
X1656333Y2393911D3*
D68*
X1756333D3*
D76*
X2401774Y1543650D3*
X2350593D3*
X2570526D3*
X2519345D3*
X2156845Y932370D3*
X2208026D3*
X3381845Y1849900D3*
X3433026D3*
D52*
X1631791Y1681791D3*
Y1630610D3*
X2657436Y1687991D3*
Y1636810D3*
D50*
X2033026Y2032381D3*
Y2000885D3*
Y1969388D3*
Y1937892D3*
Y1906396D3*
Y1874900D3*
Y1843404D3*
Y1811908D3*
Y1780412D3*
Y1748916D3*
Y1717420D3*
D48*
X2099955Y1650491D3*
X2131451D3*
X2162948D3*
X2194444D3*
X2225940D3*
X2257436D3*
X2288932D3*
X2320428D3*
X2351924D3*
X2383420D3*
X2414916D3*
D50*
X2481845Y1717420D3*
Y1748916D3*
Y1780412D3*
Y1811908D3*
Y1843404D3*
Y1874900D3*
Y1906396D3*
Y1937892D3*
Y1969388D3*
Y2000885D3*
Y2032381D3*
D48*
X2414916Y2099310D3*
X2383420D3*
X2351924D3*
X2320428D3*
X2288932D3*
X2257436D3*
X2225940D3*
X2194444D3*
X2162948D3*
X2131451D3*
X2099955D3*
D46*
X1844936Y1725392D3*
Y2099408D3*
M02*
